<svg width="467" height="302" viewBox="0 0 467 302" fill="none" xmlns="http://www.w3.org/2000/svg">
<path d="M8.25006 6.58504C10.0792 6.58504 11.562 5.19198 11.562 3.47356C11.562 1.75513 10.0792 0.362072 8.25006 0.362072C6.42092 0.362072 4.93811 1.75513 4.93811 3.47356C4.93811 5.19198 6.42092 6.58504 8.25006 6.58504Z" fill="white"/>
<path d="M9.40383 8.06804C8.57859 7.91064 7.68135 7.91754 6.87081 8.09704C1.3646 8.70318 -0.423279 14.6907 0.0815604 19.2561C0.300545 21.2299 3.6125 21.2506 3.39131 19.2561C3.2076 17.5923 3.28623 15.0815 4.22757 13.2969C4.22757 15.466 4.22757 17.6351 4.22757 19.8036C4.22757 19.8802 4.23565 19.952 4.23932 20.0259C4.23712 20.0611 4.2283 20.0908 4.2283 20.1267C4.2283 25.2899 4.21875 30.4511 3.99168 35.6102C3.89101 37.9036 7.6762 37.8947 7.77614 35.6102C7.95397 31.5668 7.9988 27.5212 8.00909 23.475C8.18839 23.486 8.36769 23.486 8.547 23.4763C8.55802 27.5226 8.60137 31.5681 8.77774 35.6102C8.87841 37.8947 12.6636 37.9036 12.5622 35.6102C12.3351 30.4511 12.327 25.2899 12.327 20.1267C12.327 19.9665 12.3043 19.8208 12.2697 19.6807C12.2646 17.4391 12.1735 15.1954 12.2014 12.9552C13.3286 14.748 13.4315 17.4826 13.2361 19.2547C13.0141 21.2478 16.3268 21.2278 16.5458 19.2547C17.0624 14.5948 15.1885 8.45189 9.40383 8.06804Z" fill="white"/>
<path d="M45.7812 6.58504C47.6103 6.58504 49.0931 5.19198 49.0931 3.47355C49.0931 1.75513 47.6103 0.362068 45.7812 0.362068C43.9521 0.362068 42.4692 1.75513 42.4692 3.47355C42.4692 5.19198 43.9521 6.58504 45.7812 6.58504Z" fill="white"/>
<path d="M46.9348 8.06804C46.1096 7.91064 45.2124 7.91754 44.4018 8.09703C38.8956 8.70318 37.1077 14.6907 37.6126 19.2561C37.8316 21.2299 41.1435 21.2506 40.9223 19.2561C40.7386 17.5923 40.8172 15.0815 41.7586 13.2969C41.7586 15.466 41.7586 17.6351 41.7586 19.8036C41.7586 19.8802 41.7667 19.952 41.7703 20.0259C41.7681 20.0611 41.7593 20.0908 41.7593 20.1267C41.7593 25.2899 41.7498 30.4511 41.5227 35.6102C41.422 37.9036 45.2072 37.8947 45.3071 35.6102C45.485 31.5667 45.5298 27.5212 45.5401 23.475C45.7194 23.486 45.8987 23.486 46.078 23.4763C46.089 27.5226 46.1324 31.5681 46.3087 35.6102C46.4094 37.8947 50.1946 37.9036 50.0932 35.6102C49.8661 30.4511 49.8581 25.2899 49.8581 20.1267C49.8581 19.9665 49.8353 19.8208 49.8007 19.6807C49.7956 17.4391 49.7045 15.1954 49.7324 12.9551C50.8596 14.748 50.9625 17.4826 50.7671 19.2547C50.5451 21.2478 53.8578 21.2278 54.0768 19.2547C54.5934 14.5948 52.7195 8.45188 46.9348 8.06804Z" fill="white"/>
<path d="M83.3122 6.58504C85.1413 6.58504 86.6242 5.19198 86.6242 3.47355C86.6242 1.75513 85.1413 0.362068 83.3122 0.362068C81.4831 0.362068 80.0002 1.75513 80.0002 3.47355C80.0002 5.19198 81.4831 6.58504 83.3122 6.58504Z" fill="white"/>
<path d="M84.466 8.06804C83.6407 7.91064 82.7435 7.91754 81.9329 8.09703C76.4267 8.70318 74.6389 14.6907 75.1437 19.2561C75.3627 21.2299 78.6746 21.2506 78.4534 19.2561C78.2697 17.5923 78.3484 15.0815 79.2897 13.2969C79.2897 15.466 79.2897 17.6351 79.2897 19.8036C79.2897 19.8802 79.2978 19.952 79.3015 20.0259C79.2993 20.0611 79.2904 20.0908 79.2904 20.1267C79.2904 25.2899 79.2809 30.4511 79.0538 35.6102C78.9531 37.9036 82.7383 37.8947 82.8383 35.6102C83.0161 31.5667 83.0609 27.5212 83.0712 23.475C83.2505 23.486 83.4298 23.486 83.6091 23.4763C83.6202 27.5226 83.6635 31.5681 83.8399 35.6102C83.9405 37.8947 87.7257 37.9036 87.6243 35.6102C87.3973 30.4511 87.3892 25.2899 87.3892 20.1267C87.3892 19.9665 87.3664 19.8208 87.3319 19.6807C87.3267 17.4391 87.2356 15.1954 87.2635 12.9551C88.3908 14.748 88.4937 17.4826 88.2982 19.2547C88.0763 21.2478 91.389 21.2278 91.6079 19.2547C92.1245 14.5948 90.2507 8.45188 84.466 8.06804Z" fill="white"/>
<path d="M120.843 6.58504C122.672 6.58504 124.155 5.19198 124.155 3.47355C124.155 1.75513 122.672 0.362068 120.843 0.362068C119.014 0.362068 117.531 1.75513 117.531 3.47355C117.531 5.19198 119.014 6.58504 120.843 6.58504Z" fill="white"/>
<path d="M121.997 8.06804C121.172 7.91064 120.274 7.91754 119.464 8.09703C113.958 8.70318 112.17 14.6907 112.675 19.2561C112.894 21.2299 116.206 21.2506 115.984 19.2561C115.801 17.5923 115.879 15.0815 116.821 13.2969C116.821 15.466 116.821 17.6351 116.821 19.8036C116.821 19.8802 116.829 19.952 116.832 20.0259C116.83 20.0611 116.821 20.0908 116.821 20.1267C116.821 25.2899 116.812 30.4511 116.585 35.6102C116.484 37.9036 120.269 37.8947 120.369 35.6102C120.547 31.5667 120.592 27.5212 120.602 23.475C120.781 23.486 120.961 23.486 121.14 23.4763C121.151 27.5226 121.194 31.5681 121.371 35.6102C121.471 37.8947 125.257 37.9036 125.155 35.6102C124.928 30.4511 124.92 25.2899 124.92 20.1267C124.92 19.9665 124.897 19.8208 124.863 19.6807C124.858 17.4391 124.766 15.1954 124.794 12.9551C125.922 14.748 126.025 17.4826 125.829 19.2547C125.607 21.2478 128.92 21.2278 129.139 19.2547C129.655 14.5948 127.782 8.45188 121.997 8.06804Z" fill="white"/>
<path d="M158.374 6.58504C160.203 6.58504 161.686 5.19198 161.686 3.47355C161.686 1.75513 160.203 0.362068 158.374 0.362068C156.545 0.362068 155.062 1.75513 155.062 3.47355C155.062 5.19198 156.545 6.58504 158.374 6.58504Z" fill="white"/>
<path d="M159.528 8.06804C158.703 7.91064 157.805 7.91754 156.995 8.09703C151.489 8.70318 149.701 14.6907 150.206 19.2561C150.425 21.2299 153.737 21.2506 153.515 19.2561C153.332 17.5923 153.41 15.0815 154.352 13.2969C154.352 15.466 154.352 17.6351 154.352 19.8036C154.352 19.8802 154.36 19.952 154.363 20.0259C154.361 20.0611 154.352 20.0908 154.352 20.1267C154.352 25.2899 154.343 30.4511 154.116 35.6102C154.015 37.9036 157.8 37.8947 157.9 35.6102C158.078 31.5667 158.123 27.5212 158.133 23.475C158.313 23.486 158.492 23.486 158.671 23.4763C158.682 27.5226 158.726 31.5681 158.902 35.6102C159.003 37.8947 162.788 37.9036 162.686 35.6102C162.459 30.4511 162.451 25.2899 162.451 20.1267C162.451 19.9665 162.428 19.8208 162.394 19.6807C162.389 17.4391 162.298 15.1954 162.326 12.9551C163.453 14.748 163.556 17.4826 163.36 19.2547C163.138 21.2478 166.451 21.2278 166.67 19.2547C167.187 14.5948 165.313 8.45188 159.528 8.06804Z" fill="white"/>
<path d="M195.905 6.58504C197.734 6.58504 199.217 5.19198 199.217 3.47355C199.217 1.75513 197.734 0.362068 195.905 0.362068C194.076 0.362068 192.593 1.75513 192.593 3.47355C192.593 5.19198 194.076 6.58504 195.905 6.58504Z" fill="white"/>
<path d="M197.059 8.06804C196.234 7.91064 195.336 7.91754 194.526 8.09703C189.02 8.70318 187.232 14.6907 187.737 19.2561C187.956 21.2299 191.268 21.2506 191.046 19.2561C190.863 17.5923 190.941 15.0815 191.883 13.2969C191.883 15.466 191.883 17.6351 191.883 19.8036C191.883 19.8802 191.891 19.952 191.894 20.0259C191.892 20.0611 191.883 20.0908 191.883 20.1267C191.883 25.2899 191.874 30.4511 191.647 35.6102C191.546 37.9036 195.331 37.8947 195.431 35.6102C195.609 31.5667 195.654 27.5212 195.664 23.475C195.844 23.486 196.023 23.486 196.202 23.4763C196.213 27.5226 196.257 31.5681 196.433 35.6102C196.534 37.8947 200.319 37.9036 200.217 35.6102C199.99 30.4511 199.982 25.2899 199.982 20.1267C199.982 19.9665 199.959 19.8208 199.925 19.6807C199.92 17.4391 199.829 15.1954 199.857 12.9551C200.984 14.748 201.087 17.4826 200.891 19.2547C200.669 21.2478 203.982 21.2278 204.201 19.2547C204.718 14.5948 202.844 8.45188 197.059 8.06804Z" fill="white"/>
<path d="M233.436 6.58504C235.265 6.58504 236.748 5.19198 236.748 3.47355C236.748 1.75513 235.265 0.362068 233.436 0.362068C231.607 0.362068 230.124 1.75513 230.124 3.47355C230.124 5.19198 231.607 6.58504 233.436 6.58504Z" fill="white"/>
<path d="M234.59 8.06804C233.765 7.91064 232.867 7.91754 232.057 8.09703C226.551 8.70318 224.763 14.6907 225.268 19.2561C225.487 21.2299 228.799 21.2506 228.577 19.2561C228.394 17.5923 228.472 15.0815 229.414 13.2969C229.414 15.466 229.414 17.6351 229.414 19.8036C229.414 19.8802 229.422 19.952 229.425 20.0259C229.423 20.0611 229.414 20.0908 229.414 20.1267C229.414 25.2899 229.405 30.4511 229.178 35.6102C229.077 37.9036 232.862 37.8947 232.962 35.6102C233.14 31.5667 233.185 27.5212 233.195 23.475C233.374 23.486 233.554 23.486 233.733 23.4763C233.744 27.5226 233.787 31.5681 233.964 35.6102C234.064 37.8947 237.85 37.9036 237.748 35.6102C237.521 30.4511 237.513 25.2899 237.513 20.1267C237.513 19.9665 237.49 19.8208 237.456 19.6807C237.451 17.4391 237.359 15.1954 237.387 12.9551C238.515 14.748 238.618 17.4826 238.422 19.2547C238.2 21.2478 241.513 21.2278 241.732 19.2547C242.248 14.5948 240.375 8.45188 234.59 8.06804Z" fill="white"/>
<path d="M270.967 6.58504C272.796 6.58504 274.279 5.19198 274.279 3.47355C274.279 1.75513 272.796 0.362068 270.967 0.362068C269.138 0.362068 267.655 1.75513 267.655 3.47355C267.655 5.19198 269.138 6.58504 270.967 6.58504Z" fill="white"/>
<path d="M272.121 8.06804C271.296 7.91064 270.398 7.91754 269.588 8.09703C264.082 8.70318 262.294 14.6907 262.799 19.2561C263.018 21.2299 266.33 21.2506 266.108 19.2561C265.925 17.5923 266.003 15.0815 266.945 13.2969C266.945 15.466 266.945 17.6351 266.945 19.8036C266.945 19.8802 266.953 19.952 266.956 20.0259C266.954 20.0611 266.945 20.0908 266.945 20.1267C266.945 25.2899 266.936 30.4511 266.709 35.6102C266.608 37.9036 270.393 37.8947 270.493 35.6102C270.671 31.5667 270.716 27.5212 270.726 23.475C270.905 23.486 271.085 23.486 271.264 23.4763C271.275 27.5226 271.318 31.5681 271.495 35.6102C271.595 37.8947 275.381 37.9036 275.279 35.6102C275.052 30.4511 275.044 25.2899 275.044 20.1267C275.044 19.9665 275.021 19.8208 274.987 19.6807C274.982 17.4391 274.891 15.1954 274.918 12.9551C276.046 14.748 276.149 17.4826 275.953 19.2547C275.731 21.2478 279.044 21.2278 279.263 19.2547C279.779 14.5948 277.906 8.45188 272.121 8.06804Z" fill="white"/>
<path d="M308.498 6.58504C310.327 6.58504 311.81 5.19198 311.81 3.47355C311.81 1.75513 310.327 0.362068 308.498 0.362068C306.669 0.362068 305.186 1.75513 305.186 3.47355C305.186 5.19198 306.669 6.58504 308.498 6.58504Z" fill="white"/>
<path d="M309.652 8.06804C308.827 7.91064 307.93 7.91754 307.119 8.09703C301.613 8.70318 299.825 14.6907 300.33 19.2561C300.549 21.2299 303.861 21.2506 303.639 19.2561C303.456 17.5923 303.534 15.0815 304.476 13.2969C304.476 15.466 304.476 17.6351 304.476 19.8036C304.476 19.8802 304.484 19.952 304.487 20.0259C304.485 20.0611 304.476 20.0908 304.476 20.1267C304.476 25.2899 304.467 30.4511 304.24 35.6102C304.139 37.9036 307.924 37.8947 308.024 35.6102C308.202 31.5667 308.247 27.5212 308.257 23.475C308.437 23.486 308.616 23.486 308.795 23.4763C308.806 27.5226 308.85 31.5681 309.026 35.6102C309.127 37.8947 312.912 37.9036 312.81 35.6102C312.583 30.4511 312.575 25.2899 312.575 20.1267C312.575 19.9665 312.552 19.8208 312.518 19.6807C312.513 17.4391 312.422 15.1954 312.45 12.9551C313.577 14.748 313.68 17.4826 313.484 19.2547C313.262 21.2478 316.575 21.2278 316.794 19.2547C317.311 14.5948 315.437 8.45188 309.652 8.06804Z" fill="white"/>
<path d="M346.029 6.58504C347.859 6.58504 349.341 5.19198 349.341 3.47355C349.341 1.75513 347.859 0.362068 346.029 0.362068C344.2 0.362068 342.717 1.75513 342.717 3.47355C342.717 5.19198 344.2 6.58504 346.029 6.58504Z" fill="white"/>
<path d="M347.183 8.06804C346.358 7.91064 345.461 7.91754 344.65 8.09703C339.144 8.70318 337.356 14.6907 337.861 19.2561C338.08 21.2299 341.392 21.2506 341.17 19.2561C340.987 17.5923 341.065 15.0815 342.007 13.2969C342.007 15.466 342.007 17.6351 342.007 19.8036C342.007 19.8802 342.015 19.952 342.018 20.0259C342.016 20.0611 342.007 20.0908 342.007 20.1267C342.007 25.2899 341.998 30.4511 341.771 35.6102C341.67 37.9036 345.455 37.8947 345.555 35.6102C345.733 31.5667 345.778 27.5212 345.788 23.475C345.968 23.486 346.147 23.486 346.326 23.4763C346.337 27.5226 346.381 31.5681 346.557 35.6102C346.658 37.8947 350.443 37.9036 350.341 35.6102C350.114 30.4511 350.106 25.2899 350.106 20.1267C350.106 19.9665 350.083 19.8208 350.049 19.6807C350.044 17.4391 349.953 15.1954 349.981 12.9551C351.108 14.748 351.211 17.4826 351.015 19.2547C350.793 21.2478 354.106 21.2278 354.325 19.2547C354.842 14.5948 352.968 8.45188 347.183 8.06804Z" fill="white"/>
<path d="M383.56 6.58504C385.39 6.58504 386.872 5.19198 386.872 3.47355C386.872 1.75513 385.39 0.362068 383.56 0.362068C381.731 0.362068 380.248 1.75513 380.248 3.47355C380.248 5.19198 381.731 6.58504 383.56 6.58504Z" fill="white"/>
<path d="M384.714 8.06804C383.889 7.91064 382.992 7.91754 382.181 8.09703C376.675 8.70318 374.887 14.6907 375.392 19.2561C375.611 21.2299 378.923 21.2506 378.701 19.2561C378.518 17.5923 378.596 15.0815 379.538 13.2969C379.538 15.466 379.538 17.6351 379.538 19.8036C379.538 19.8802 379.546 19.952 379.55 20.0259C379.547 20.0611 379.538 20.0908 379.538 20.1267C379.538 25.2899 379.529 30.4511 379.302 35.6102C379.201 37.9036 382.986 37.8947 383.086 35.6102C383.264 31.5667 383.309 27.5212 383.319 23.475C383.499 23.486 383.678 23.486 383.857 23.4763C383.868 27.5226 383.912 31.5681 384.088 35.6102C384.189 37.8947 387.974 37.9036 387.872 35.6102C387.645 30.4511 387.637 25.2899 387.637 20.1267C387.637 19.9665 387.614 19.8208 387.58 19.6807C387.575 17.4391 387.484 15.1954 387.512 12.9551C388.639 14.748 388.742 17.4826 388.546 19.2547C388.324 21.2478 391.637 21.2278 391.856 19.2547C392.373 14.5948 390.499 8.45188 384.714 8.06804Z" fill="white"/>
<path d="M421.091 6.58504C422.92 6.58504 424.403 5.19198 424.403 3.47355C424.403 1.75513 422.92 0.362068 421.091 0.362068C419.262 0.362068 417.779 1.75513 417.779 3.47355C417.779 5.19198 419.262 6.58504 421.091 6.58504Z" fill="white"/>
<path d="M422.245 8.06804C421.42 7.91064 420.523 7.91754 419.712 8.09703C414.206 8.70318 412.418 14.6907 412.923 19.2561C413.142 21.2299 416.454 21.2506 416.233 19.2561C416.049 17.5923 416.128 15.0815 417.069 13.2969C417.069 15.466 417.069 17.6351 417.069 19.8036C417.069 19.8802 417.077 19.952 417.081 20.0259C417.078 20.0611 417.07 20.0908 417.07 20.1267C417.07 25.2899 417.06 30.4511 416.833 35.6102C416.732 37.9036 420.518 37.8947 420.617 35.6102C420.795 31.5667 420.84 27.5212 420.85 23.475C421.03 23.486 421.209 23.486 421.388 23.4763C421.399 27.5226 421.443 31.5681 421.619 35.6102C421.72 37.8947 425.505 37.9036 425.404 35.6102C425.176 30.4511 425.168 25.2899 425.168 20.1267C425.168 19.9665 425.146 19.8208 425.111 19.6807C425.106 17.4391 425.015 15.1954 425.043 12.9551C426.17 14.748 426.273 17.4826 426.077 19.2547C425.855 21.2478 429.168 21.2278 429.387 19.2547C429.904 14.5948 428.03 8.45188 422.245 8.06804Z" fill="white"/>
<path d="M458.622 6.58504C460.452 6.58504 461.934 5.19198 461.934 3.47355C461.934 1.75513 460.452 0.362068 458.622 0.362068C456.793 0.362068 455.31 1.75513 455.31 3.47355C455.31 5.19198 456.793 6.58504 458.622 6.58504Z" fill="white"/>
<path d="M459.776 8.06804C458.951 7.91064 458.054 7.91754 457.243 8.09703C451.737 8.70318 449.949 14.6907 450.454 19.2561C450.673 21.2299 453.985 21.2506 453.764 19.2561C453.58 17.5923 453.659 15.0815 454.6 13.2969C454.6 15.466 454.6 17.6351 454.6 19.8036C454.6 19.8802 454.608 19.952 454.612 20.0259C454.609 20.0611 454.601 20.0908 454.601 20.1267C454.601 25.2899 454.591 30.4511 454.364 35.6102C454.263 37.9036 458.049 37.8947 458.148 35.6102C458.326 31.5667 458.371 27.5212 458.381 23.475C458.561 23.486 458.74 23.486 458.919 23.4763C458.93 27.5226 458.974 31.5681 459.15 35.6102C459.251 37.8947 463.036 37.9036 462.935 35.6102C462.707 30.4511 462.699 25.2899 462.699 20.1267C462.699 19.9665 462.677 19.8208 462.642 19.6807C462.637 17.4391 462.546 15.1954 462.574 12.9551C463.701 14.748 463.804 17.4826 463.608 19.2547C463.386 21.2478 466.699 21.2278 466.918 19.2547C467.435 14.5948 465.561 8.45188 459.776 8.06804Z" fill="white"/>
<path d="M8.25006 72.5874C10.0792 72.5874 11.562 71.1943 11.562 69.4759C11.562 67.7575 10.0792 66.3644 8.25006 66.3644C6.42092 66.3644 4.93811 67.7575 4.93811 69.4759C4.93811 71.1943 6.42092 72.5874 8.25006 72.5874Z" fill="white"/>
<path d="M9.40383 74.0704C8.57859 73.913 7.68135 73.9199 6.87081 74.0994C1.3646 74.7055 -0.423279 80.6931 0.0815604 85.2585C0.300545 87.2322 3.6125 87.2529 3.39131 85.2585C3.2076 83.5947 3.28623 81.0838 4.22757 79.2992C4.22757 81.4683 4.22757 83.6375 4.22757 85.8059C4.22757 85.8825 4.23565 85.9543 4.23932 86.0282C4.23712 86.0634 4.2283 86.0931 4.2283 86.129C4.2283 91.2923 4.21875 96.4534 3.99168 101.613C3.89101 103.906 7.6762 103.897 7.77614 101.613C7.95397 97.5691 7.9988 93.5235 8.00909 89.4773C8.18839 89.4883 8.36769 89.4883 8.547 89.4787C8.55802 93.5249 8.60137 97.5705 8.77774 101.613C8.87841 103.897 12.6636 103.906 12.5622 101.613C12.3351 96.4534 12.327 91.2923 12.327 86.129C12.327 85.9688 12.3043 85.8232 12.2697 85.683C12.2646 83.4414 12.1735 81.1977 12.2014 78.9575C13.3286 80.7504 13.4315 83.4849 13.2361 85.2571C13.0141 87.2502 16.3268 87.2301 16.5458 85.2571C17.0624 80.5971 15.1885 74.4542 9.40383 74.0704Z" fill="white"/>
<path d="M45.7812 72.5874C47.6103 72.5874 49.0931 71.1943 49.0931 69.4759C49.0931 67.7575 47.6103 66.3644 45.7812 66.3644C43.9521 66.3644 42.4692 67.7575 42.4692 69.4759C42.4692 71.1943 43.9521 72.5874 45.7812 72.5874Z" fill="white"/>
<path d="M46.9348 74.0704C46.1096 73.913 45.2124 73.9199 44.4018 74.0994C38.8956 74.7055 37.1077 80.6931 37.6126 85.2585C37.8316 87.2322 41.1435 87.2529 40.9223 85.2585C40.7386 83.5947 40.8172 81.0838 41.7586 79.2992C41.7586 81.4683 41.7586 83.6375 41.7586 85.8059C41.7586 85.8825 41.7667 85.9543 41.7703 86.0282C41.7681 86.0634 41.7593 86.0931 41.7593 86.129C41.7593 91.2923 41.7498 96.4534 41.5227 101.613C41.422 103.906 45.2072 103.897 45.3071 101.613C45.485 97.5691 45.5298 93.5235 45.5401 89.4773C45.7194 89.4883 45.8987 89.4883 46.078 89.4787C46.089 93.5249 46.1324 97.5705 46.3087 101.613C46.4094 103.897 50.1946 103.906 50.0932 101.613C49.8661 96.4534 49.8581 91.2923 49.8581 86.129C49.8581 85.9688 49.8353 85.8232 49.8007 85.683C49.7956 83.4414 49.7045 81.1977 49.7324 78.9575C50.8596 80.7504 50.9625 83.4849 50.7671 85.2571C50.5451 87.2502 53.8578 87.2301 54.0768 85.2571C54.5934 80.5971 52.7195 74.4542 46.9348 74.0704Z" fill="white"/>
<path d="M83.3122 72.5874C85.1413 72.5874 86.6242 71.1943 86.6242 69.4759C86.6242 67.7575 85.1413 66.3644 83.3122 66.3644C81.4831 66.3644 80.0002 67.7575 80.0002 69.4759C80.0002 71.1943 81.4831 72.5874 83.3122 72.5874Z" fill="white"/>
<path d="M84.466 74.0704C83.6407 73.913 82.7435 73.9199 81.9329 74.0994C76.4267 74.7055 74.6389 80.6931 75.1437 85.2585C75.3627 87.2322 78.6746 87.2529 78.4534 85.2585C78.2697 83.5947 78.3484 81.0838 79.2897 79.2992C79.2897 81.4683 79.2897 83.6375 79.2897 85.8059C79.2897 85.8825 79.2978 85.9543 79.3015 86.0282C79.2993 86.0634 79.2904 86.0931 79.2904 86.129C79.2904 91.2923 79.2809 96.4534 79.0538 101.613C78.9531 103.906 82.7383 103.897 82.8383 101.613C83.0161 97.5691 83.0609 93.5235 83.0712 89.4773C83.2505 89.4883 83.4298 89.4883 83.6091 89.4787C83.6202 93.5249 83.6635 97.5705 83.8399 101.613C83.9405 103.897 87.7257 103.906 87.6243 101.613C87.3973 96.4534 87.3892 91.2923 87.3892 86.129C87.3892 85.9688 87.3664 85.8232 87.3319 85.683C87.3267 83.4414 87.2356 81.1977 87.2635 78.9575C88.3908 80.7504 88.4937 83.4849 88.2982 85.2571C88.0763 87.2502 91.389 87.2301 91.6079 85.2571C92.1245 80.5971 90.2507 74.4542 84.466 74.0704Z" fill="white"/>
<path d="M120.843 72.5874C122.672 72.5874 124.155 71.1943 124.155 69.4759C124.155 67.7575 122.672 66.3644 120.843 66.3644C119.014 66.3644 117.531 67.7575 117.531 69.4759C117.531 71.1943 119.014 72.5874 120.843 72.5874Z" fill="#7F7F7F"/>
<path d="M121.997 74.0704C121.172 73.913 120.274 73.9199 119.464 74.0994C113.958 74.7055 112.17 80.6931 112.675 85.2585C112.894 87.2322 116.206 87.2529 115.984 85.2585C115.801 83.5947 115.879 81.0838 116.821 79.2992C116.821 81.4683 116.821 83.6375 116.821 85.8059C116.821 85.8825 116.829 85.9543 116.832 86.0282C116.83 86.0634 116.821 86.0931 116.821 86.129C116.821 91.2923 116.812 96.4534 116.585 101.613C116.484 103.906 120.269 103.897 120.369 101.613C120.547 97.5691 120.592 93.5235 120.602 89.4773C120.781 89.4883 120.961 89.4883 121.14 89.4787C121.151 93.5249 121.194 97.5705 121.371 101.613C121.471 103.897 125.257 103.906 125.155 101.613C124.928 96.4534 124.92 91.2923 124.92 86.129C124.92 85.9688 124.897 85.8232 124.863 85.683C124.858 83.4414 124.766 81.1977 124.794 78.9575C125.922 80.7504 126.025 83.4849 125.829 85.2571C125.607 87.2502 128.92 87.2301 129.139 85.2571C129.655 80.5971 127.782 74.4542 121.997 74.0704Z" fill="#7F7F7F"/>
<path d="M158.374 72.5874C160.203 72.5874 161.686 71.1943 161.686 69.4759C161.686 67.7575 160.203 66.3644 158.374 66.3644C156.545 66.3644 155.062 67.7575 155.062 69.4759C155.062 71.1943 156.545 72.5874 158.374 72.5874Z" fill="#7F7F7F"/>
<path d="M159.528 74.0704C158.703 73.913 157.805 73.9199 156.995 74.0994C151.489 74.7055 149.701 80.6931 150.206 85.2585C150.425 87.2322 153.737 87.2529 153.515 85.2585C153.332 83.5947 153.41 81.0838 154.352 79.2992C154.352 81.4683 154.352 83.6375 154.352 85.8059C154.352 85.8825 154.36 85.9543 154.363 86.0282C154.361 86.0634 154.352 86.0931 154.352 86.129C154.352 91.2923 154.343 96.4534 154.116 101.613C154.015 103.906 157.8 103.897 157.9 101.613C158.078 97.5691 158.123 93.5235 158.133 89.4773C158.313 89.4883 158.492 89.4883 158.671 89.4787C158.682 93.5249 158.726 97.5705 158.902 101.613C159.003 103.897 162.788 103.906 162.686 101.613C162.459 96.4534 162.451 91.2923 162.451 86.129C162.451 85.9688 162.428 85.8232 162.394 85.683C162.389 83.4414 162.298 81.1977 162.326 78.9575C163.453 80.7504 163.556 83.4849 163.36 85.2571C163.138 87.2502 166.451 87.2301 166.67 85.2571C167.187 80.5971 165.313 74.4542 159.528 74.0704Z" fill="#7F7F7F"/>
<path d="M195.905 72.5874C197.734 72.5874 199.217 71.1943 199.217 69.4759C199.217 67.7575 197.734 66.3644 195.905 66.3644C194.076 66.3644 192.593 67.7575 192.593 69.4759C192.593 71.1943 194.076 72.5874 195.905 72.5874Z" fill="#7F7F7F"/>
<path d="M197.059 74.0704C196.234 73.913 195.336 73.9199 194.526 74.0994C189.02 74.7055 187.232 80.6931 187.737 85.2585C187.956 87.2322 191.268 87.2529 191.046 85.2585C190.863 83.5947 190.941 81.0838 191.883 79.2992C191.883 81.4683 191.883 83.6375 191.883 85.8059C191.883 85.8825 191.891 85.9543 191.894 86.0282C191.892 86.0634 191.883 86.0931 191.883 86.129C191.883 91.2923 191.874 96.4534 191.647 101.613C191.546 103.906 195.331 103.897 195.431 101.613C195.609 97.5691 195.654 93.5235 195.664 89.4773C195.844 89.4883 196.023 89.4883 196.202 89.4787C196.213 93.5249 196.257 97.5705 196.433 101.613C196.534 103.897 200.319 103.906 200.217 101.613C199.99 96.4534 199.982 91.2923 199.982 86.129C199.982 85.9688 199.959 85.8232 199.925 85.683C199.92 83.4414 199.829 81.1977 199.857 78.9575C200.984 80.7504 201.087 83.4849 200.891 85.2571C200.669 87.2502 203.982 87.2301 204.201 85.2571C204.718 80.5971 202.844 74.4542 197.059 74.0704Z" fill="#7F7F7F"/>
<path d="M233.436 72.5874C235.265 72.5874 236.748 71.1943 236.748 69.4759C236.748 67.7575 235.265 66.3644 233.436 66.3644C231.607 66.3644 230.124 67.7575 230.124 69.4759C230.124 71.1943 231.607 72.5874 233.436 72.5874Z" fill="#7F7F7F"/>
<path d="M234.59 74.0704C233.765 73.913 232.867 73.9199 232.057 74.0994C226.551 74.7055 224.763 80.6931 225.268 85.2585C225.487 87.2322 228.799 87.2529 228.577 85.2585C228.394 83.5947 228.472 81.0838 229.414 79.2992C229.414 81.4683 229.414 83.6375 229.414 85.8059C229.414 85.8825 229.422 85.9543 229.425 86.0282C229.423 86.0634 229.414 86.0931 229.414 86.129C229.414 91.2923 229.405 96.4534 229.178 101.613C229.077 103.906 232.862 103.897 232.962 101.613C233.14 97.5691 233.185 93.5235 233.195 89.4773C233.374 89.4883 233.554 89.4883 233.733 89.4787C233.744 93.5249 233.787 97.5705 233.964 101.613C234.064 103.897 237.85 103.906 237.748 101.613C237.521 96.4534 237.513 91.2923 237.513 86.129C237.513 85.9688 237.49 85.8232 237.456 85.683C237.451 83.4414 237.359 81.1977 237.387 78.9575C238.515 80.7504 238.618 83.4849 238.422 85.2571C238.2 87.2502 241.513 87.2301 241.732 85.2571C242.248 80.5971 240.375 74.4542 234.59 74.0704Z" fill="#7F7F7F"/>
<path d="M270.967 72.5874C272.796 72.5874 274.279 71.1943 274.279 69.4759C274.279 67.7575 272.796 66.3644 270.967 66.3644C269.138 66.3644 267.655 67.7575 267.655 69.4759C267.655 71.1943 269.138 72.5874 270.967 72.5874Z" fill="#7F7F7F"/>
<path d="M272.121 74.0704C271.296 73.913 270.398 73.9199 269.588 74.0994C264.082 74.7055 262.294 80.6931 262.799 85.2585C263.018 87.2322 266.33 87.2529 266.108 85.2585C265.925 83.5947 266.003 81.0838 266.945 79.2992C266.945 81.4683 266.945 83.6375 266.945 85.8059C266.945 85.8825 266.953 85.9543 266.956 86.0282C266.954 86.0634 266.945 86.0931 266.945 86.129C266.945 91.2923 266.936 96.4534 266.709 101.613C266.608 103.906 270.393 103.897 270.493 101.613C270.671 97.5691 270.716 93.5235 270.726 89.4773C270.905 89.4883 271.085 89.4883 271.264 89.4787C271.275 93.5249 271.318 97.5705 271.495 101.613C271.595 103.897 275.381 103.906 275.279 101.613C275.052 96.4534 275.044 91.2923 275.044 86.129C275.044 85.9688 275.021 85.8232 274.987 85.683C274.982 83.4414 274.891 81.1977 274.918 78.9575C276.046 80.7504 276.149 83.4849 275.953 85.2571C275.731 87.2502 279.044 87.2301 279.263 85.2571C279.779 80.5971 277.906 74.4542 272.121 74.0704Z" fill="#7F7F7F"/>
<path d="M308.498 72.5874C310.327 72.5874 311.81 71.1943 311.81 69.4759C311.81 67.7575 310.327 66.3644 308.498 66.3644C306.669 66.3644 305.186 67.7575 305.186 69.4759C305.186 71.1943 306.669 72.5874 308.498 72.5874Z" fill="#7F7F7F"/>
<path d="M309.652 74.0704C308.827 73.913 307.93 73.9199 307.119 74.0994C301.613 74.7055 299.825 80.6931 300.33 85.2585C300.549 87.2322 303.861 87.2529 303.639 85.2585C303.456 83.5947 303.534 81.0838 304.476 79.2992C304.476 81.4683 304.476 83.6375 304.476 85.8059C304.476 85.8825 304.484 85.9543 304.487 86.0282C304.485 86.0634 304.476 86.0931 304.476 86.129C304.476 91.2923 304.467 96.4534 304.24 101.613C304.139 103.906 307.924 103.897 308.024 101.613C308.202 97.5691 308.247 93.5235 308.257 89.4773C308.437 89.4883 308.616 89.4883 308.795 89.4787C308.806 93.5249 308.85 97.5705 309.026 101.613C309.127 103.897 312.912 103.906 312.81 101.613C312.583 96.4534 312.575 91.2923 312.575 86.129C312.575 85.9688 312.552 85.8232 312.518 85.683C312.513 83.4414 312.422 81.1977 312.45 78.9575C313.577 80.7504 313.68 83.4849 313.484 85.2571C313.262 87.2502 316.575 87.2301 316.794 85.2571C317.311 80.5971 315.437 74.4542 309.652 74.0704Z" fill="#7F7F7F"/>
<path d="M346.029 72.5874C347.859 72.5874 349.341 71.1943 349.341 69.4759C349.341 67.7575 347.859 66.3644 346.029 66.3644C344.2 66.3644 342.717 67.7575 342.717 69.4759C342.717 71.1943 344.2 72.5874 346.029 72.5874Z" fill="#7F7F7F"/>
<path d="M347.183 74.0704C346.358 73.913 345.461 73.9199 344.65 74.0994C339.144 74.7055 337.356 80.6931 337.861 85.2585C338.08 87.2322 341.392 87.2529 341.17 85.2585C340.987 83.5947 341.065 81.0838 342.007 79.2992C342.007 81.4683 342.007 83.6375 342.007 85.8059C342.007 85.8825 342.015 85.9543 342.018 86.0282C342.016 86.0634 342.007 86.0931 342.007 86.129C342.007 91.2923 341.998 96.4534 341.771 101.613C341.67 103.906 345.455 103.897 345.555 101.613C345.733 97.5691 345.778 93.5235 345.788 89.4773C345.968 89.4883 346.147 89.4883 346.326 89.4787C346.337 93.5249 346.381 97.5705 346.557 101.613C346.658 103.897 350.443 103.906 350.341 101.613C350.114 96.4534 350.106 91.2923 350.106 86.129C350.106 85.9688 350.083 85.8232 350.049 85.683C350.044 83.4414 349.953 81.1977 349.981 78.9575C351.108 80.7504 351.211 83.4849 351.015 85.2571C350.793 87.2502 354.106 87.2301 354.325 85.2571C354.842 80.5971 352.968 74.4542 347.183 74.0704Z" fill="#7F7F7F"/>
<path d="M383.56 72.5874C385.39 72.5874 386.872 71.1943 386.872 69.4759C386.872 67.7575 385.39 66.3644 383.56 66.3644C381.731 66.3644 380.248 67.7575 380.248 69.4759C380.248 71.1943 381.731 72.5874 383.56 72.5874Z" fill="#7F7F7F"/>
<path d="M384.714 74.0704C383.889 73.913 382.992 73.9199 382.181 74.0994C376.675 74.7055 374.887 80.6931 375.392 85.2585C375.611 87.2322 378.923 87.2529 378.701 85.2585C378.518 83.5947 378.596 81.0838 379.538 79.2992C379.538 81.4683 379.538 83.6375 379.538 85.8059C379.538 85.8825 379.546 85.9543 379.55 86.0282C379.547 86.0634 379.538 86.0931 379.538 86.129C379.538 91.2923 379.529 96.4534 379.302 101.613C379.201 103.906 382.986 103.897 383.086 101.613C383.264 97.5691 383.309 93.5235 383.319 89.4773C383.499 89.4883 383.678 89.4883 383.857 89.4787C383.868 93.5249 383.912 97.5705 384.088 101.613C384.189 103.897 387.974 103.906 387.872 101.613C387.645 96.4534 387.637 91.2923 387.637 86.129C387.637 85.9688 387.614 85.8232 387.58 85.683C387.575 83.4414 387.484 81.1977 387.512 78.9575C388.639 80.7504 388.742 83.4849 388.546 85.2571C388.324 87.2502 391.637 87.2301 391.856 85.2571C392.373 80.5971 390.499 74.4542 384.714 74.0704Z" fill="#7F7F7F"/>
<path d="M421.091 72.5874C422.92 72.5874 424.403 71.1943 424.403 69.4759C424.403 67.7575 422.92 66.3644 421.091 66.3644C419.262 66.3644 417.779 67.7575 417.779 69.4759C417.779 71.1943 419.262 72.5874 421.091 72.5874Z" fill="#7F7F7F"/>
<path d="M422.245 74.0704C421.42 73.913 420.523 73.9199 419.712 74.0994C414.206 74.7055 412.418 80.6931 412.923 85.2585C413.142 87.2322 416.454 87.2529 416.233 85.2585C416.049 83.5947 416.128 81.0838 417.069 79.2992C417.069 81.4683 417.069 83.6375 417.069 85.8059C417.069 85.8825 417.077 85.9543 417.081 86.0282C417.078 86.0634 417.07 86.0931 417.07 86.129C417.07 91.2923 417.06 96.4534 416.833 101.613C416.732 103.906 420.518 103.897 420.617 101.613C420.795 97.5691 420.84 93.5235 420.85 89.4773C421.03 89.4883 421.209 89.4883 421.388 89.4787C421.399 93.5249 421.443 97.5705 421.619 101.613C421.72 103.897 425.505 103.906 425.404 101.613C425.176 96.4534 425.168 91.2923 425.168 86.129C425.168 85.9688 425.146 85.8232 425.111 85.683C425.106 83.4414 425.015 81.1977 425.043 78.9575C426.17 80.7504 426.273 83.4849 426.077 85.2571C425.855 87.2502 429.168 87.2301 429.387 85.2571C429.904 80.5971 428.03 74.4542 422.245 74.0704Z" fill="#7F7F7F"/>
<path d="M458.622 72.5874C460.452 72.5874 461.934 71.1943 461.934 69.4759C461.934 67.7575 460.452 66.3644 458.622 66.3644C456.793 66.3644 455.31 67.7575 455.31 69.4759C455.31 71.1943 456.793 72.5874 458.622 72.5874Z" fill="#7F7F7F"/>
<path d="M459.776 74.0704C458.951 73.913 458.054 73.9199 457.243 74.0994C451.737 74.7055 449.949 80.6931 450.454 85.2585C450.673 87.2322 453.985 87.2529 453.764 85.2585C453.58 83.5947 453.659 81.0838 454.6 79.2992C454.6 81.4683 454.6 83.6375 454.6 85.8059C454.6 85.8825 454.608 85.9543 454.612 86.0282C454.609 86.0634 454.601 86.0931 454.601 86.129C454.601 91.2923 454.591 96.4534 454.364 101.613C454.263 103.906 458.049 103.897 458.148 101.613C458.326 97.5691 458.371 93.5235 458.381 89.4773C458.561 89.4883 458.74 89.4883 458.919 89.4787C458.93 93.5249 458.974 97.5705 459.15 101.613C459.251 103.897 463.036 103.906 462.935 101.613C462.707 96.4534 462.699 91.2923 462.699 86.129C462.699 85.9688 462.677 85.8232 462.642 85.683C462.637 83.4414 462.546 81.1977 462.574 78.9575C463.701 80.7504 463.804 83.4849 463.608 85.2571C463.386 87.2502 466.699 87.2301 466.918 85.2571C467.435 80.5971 465.561 74.4542 459.776 74.0704Z" fill="#7F7F7F"/>
<path d="M8.25006 138.59C10.0792 138.59 11.562 137.197 11.562 135.478C11.562 133.76 10.0792 132.367 8.25006 132.367C6.42092 132.367 4.93811 133.76 4.93811 135.478C4.93811 137.197 6.42092 138.59 8.25006 138.59Z" fill="white"/>
<path d="M9.40383 140.073C8.57859 139.915 7.68135 139.922 6.87081 140.102C1.3646 140.708 -0.423279 146.695 0.0815604 151.261C0.300545 153.235 3.6125 153.255 3.39131 151.261C3.2076 149.597 3.28623 147.086 4.22757 145.302C4.22757 147.471 4.22757 149.64 4.22757 151.808C4.22757 151.885 4.23565 151.957 4.23932 152.031C4.23712 152.066 4.2283 152.095 4.2283 152.131C4.2283 157.295 4.21875 162.456 3.99168 167.615C3.89101 169.908 7.6762 169.899 7.77614 167.615C7.95397 163.571 7.9988 159.526 8.00909 155.48C8.18839 155.491 8.36769 155.491 8.547 155.481C8.55802 159.527 8.60137 163.573 8.77774 167.615C8.87841 169.899 12.6636 169.908 12.5622 167.615C12.3351 162.456 12.327 157.295 12.327 152.131C12.327 151.971 12.3043 151.825 12.2697 151.685C12.2646 149.444 12.1735 147.2 12.2014 144.96C13.3286 146.753 13.4315 149.487 13.2361 151.259C13.0141 153.252 16.3268 153.232 16.5458 151.259C17.0624 146.599 15.1885 140.457 9.40383 140.073Z" fill="white"/>
<path d="M45.7812 138.59C47.6103 138.59 49.0931 137.197 49.0931 135.478C49.0931 133.76 47.6103 132.367 45.7812 132.367C43.9521 132.367 42.4692 133.76 42.4692 135.478C42.4692 137.197 43.9521 138.59 45.7812 138.59Z" fill="white"/>
<path d="M46.9348 140.073C46.1096 139.915 45.2124 139.922 44.4018 140.102C38.8956 140.708 37.1077 146.695 37.6126 151.261C37.8316 153.235 41.1435 153.255 40.9223 151.261C40.7386 149.597 40.8172 147.086 41.7586 145.302C41.7586 147.471 41.7586 149.64 41.7586 151.808C41.7586 151.885 41.7667 151.957 41.7703 152.031C41.7681 152.066 41.7593 152.095 41.7593 152.131C41.7593 157.295 41.7498 162.456 41.5227 167.615C41.422 169.908 45.2072 169.899 45.3071 167.615C45.485 163.571 45.5298 159.526 45.5401 155.48C45.7194 155.491 45.8987 155.491 46.078 155.481C46.089 159.527 46.1324 163.573 46.3087 167.615C46.4094 169.899 50.1946 169.908 50.0932 167.615C49.8661 162.456 49.8581 157.295 49.8581 152.131C49.8581 151.971 49.8353 151.825 49.8007 151.685C49.7956 149.444 49.7045 147.2 49.7324 144.96C50.8596 146.753 50.9625 149.487 50.7671 151.259C50.5451 153.252 53.8578 153.232 54.0768 151.259C54.5934 146.599 52.7195 140.457 46.9348 140.073Z" fill="white"/>
<path d="M120.843 138.59C122.672 138.59 124.155 137.197 124.155 135.478C124.155 133.76 122.672 132.367 120.843 132.367C119.014 132.367 117.531 133.76 117.531 135.478C117.531 137.197 119.014 138.59 120.843 138.59Z" fill="#7F7F7F"/>
<path d="M121.997 140.073C121.172 139.915 120.274 139.922 119.464 140.102C113.958 140.708 112.17 146.695 112.675 151.261C112.894 153.235 116.206 153.255 115.984 151.261C115.801 149.597 115.879 147.086 116.821 145.302C116.821 147.471 116.821 149.64 116.821 151.808C116.821 151.885 116.829 151.957 116.832 152.031C116.83 152.066 116.821 152.095 116.821 152.131C116.821 157.295 116.812 162.456 116.585 167.615C116.484 169.908 120.269 169.899 120.369 167.615C120.547 163.571 120.592 159.526 120.602 155.48C120.781 155.491 120.961 155.491 121.14 155.481C121.151 159.527 121.194 163.573 121.371 167.615C121.471 169.899 125.257 169.908 125.155 167.615C124.928 162.456 124.92 157.295 124.92 152.131C124.92 151.971 124.897 151.825 124.863 151.685C124.858 149.444 124.766 147.2 124.794 144.96C125.922 146.753 126.025 149.487 125.829 151.259C125.607 153.252 128.92 153.232 129.139 151.259C129.655 146.599 127.782 140.457 121.997 140.073Z" fill="#7F7F7F"/>
<path d="M158.374 138.59C160.203 138.59 161.686 137.197 161.686 135.478C161.686 133.76 160.203 132.367 158.374 132.367C156.545 132.367 155.062 133.76 155.062 135.478C155.062 137.197 156.545 138.59 158.374 138.59Z" fill="#7F7F7F"/>
<path d="M159.528 140.073C158.703 139.915 157.805 139.922 156.995 140.102C151.489 140.708 149.701 146.695 150.206 151.261C150.425 153.235 153.737 153.255 153.515 151.261C153.332 149.597 153.41 147.086 154.352 145.302C154.352 147.471 154.352 149.64 154.352 151.808C154.352 151.885 154.36 151.957 154.363 152.031C154.361 152.066 154.352 152.095 154.352 152.131C154.352 157.295 154.343 162.456 154.116 167.615C154.015 169.908 157.8 169.899 157.9 167.615C158.078 163.571 158.123 159.526 158.133 155.48C158.313 155.491 158.492 155.491 158.671 155.481C158.682 159.527 158.726 163.573 158.902 167.615C159.003 169.899 162.788 169.908 162.686 167.615C162.459 162.456 162.451 157.295 162.451 152.131C162.451 151.971 162.428 151.825 162.394 151.685C162.389 149.444 162.298 147.2 162.326 144.96C163.453 146.753 163.556 149.487 163.36 151.259C163.138 153.252 166.451 153.232 166.67 151.259C167.187 146.599 165.313 140.457 159.528 140.073Z" fill="#7F7F7F"/>
<path d="M195.905 138.59C197.734 138.59 199.217 137.197 199.217 135.478C199.217 133.76 197.734 132.367 195.905 132.367C194.076 132.367 192.593 133.76 192.593 135.478C192.593 137.197 194.076 138.59 195.905 138.59Z" fill="#7F7F7F"/>
<path d="M197.059 140.073C196.234 139.915 195.336 139.922 194.526 140.102C189.02 140.708 187.232 146.695 187.737 151.261C187.956 153.235 191.268 153.255 191.046 151.261C190.863 149.597 190.941 147.086 191.883 145.302C191.883 147.471 191.883 149.64 191.883 151.808C191.883 151.885 191.891 151.957 191.894 152.031C191.892 152.066 191.883 152.095 191.883 152.131C191.883 157.295 191.874 162.456 191.647 167.615C191.546 169.908 195.331 169.899 195.431 167.615C195.609 163.571 195.654 159.526 195.664 155.48C195.844 155.491 196.023 155.491 196.202 155.481C196.213 159.527 196.257 163.573 196.433 167.615C196.534 169.899 200.319 169.908 200.217 167.615C199.99 162.456 199.982 157.295 199.982 152.131C199.982 151.971 199.959 151.825 199.925 151.685C199.92 149.444 199.829 147.2 199.857 144.96C200.984 146.753 201.087 149.487 200.891 151.259C200.669 153.252 203.982 153.232 204.201 151.259C204.718 146.599 202.844 140.457 197.059 140.073Z" fill="#7F7F7F"/>
<path d="M233.436 138.59C235.265 138.59 236.748 137.197 236.748 135.478C236.748 133.76 235.265 132.367 233.436 132.367C231.607 132.367 230.124 133.76 230.124 135.478C230.124 137.197 231.607 138.59 233.436 138.59Z" fill="#7F7F7F"/>
<path d="M234.59 140.073C233.765 139.915 232.867 139.922 232.057 140.102C226.551 140.708 224.763 146.695 225.268 151.261C225.487 153.235 228.799 153.255 228.577 151.261C228.394 149.597 228.472 147.086 229.414 145.302C229.414 147.471 229.414 149.64 229.414 151.808C229.414 151.885 229.422 151.957 229.425 152.031C229.423 152.066 229.414 152.095 229.414 152.131C229.414 157.295 229.405 162.456 229.178 167.615C229.077 169.908 232.862 169.899 232.962 167.615C233.14 163.571 233.185 159.526 233.195 155.48C233.374 155.491 233.554 155.491 233.733 155.481C233.744 159.527 233.787 163.573 233.964 167.615C234.064 169.899 237.85 169.908 237.748 167.615C237.521 162.456 237.513 157.295 237.513 152.131C237.513 151.971 237.49 151.825 237.456 151.685C237.451 149.444 237.359 147.2 237.387 144.96C238.515 146.753 238.618 149.487 238.422 151.259C238.2 153.252 241.513 153.232 241.732 151.259C242.248 146.599 240.375 140.457 234.59 140.073Z" fill="#7F7F7F"/>
<path d="M270.967 138.59C272.796 138.59 274.279 137.197 274.279 135.478C274.279 133.76 272.796 132.367 270.967 132.367C269.138 132.367 267.655 133.76 267.655 135.478C267.655 137.197 269.138 138.59 270.967 138.59Z" fill="#7F7F7F"/>
<path d="M272.121 140.073C271.296 139.915 270.398 139.922 269.588 140.102C264.082 140.708 262.294 146.695 262.799 151.261C263.018 153.235 266.33 153.255 266.108 151.261C265.925 149.597 266.003 147.086 266.945 145.302C266.945 147.471 266.945 149.64 266.945 151.808C266.945 151.885 266.953 151.957 266.956 152.031C266.954 152.066 266.945 152.095 266.945 152.131C266.945 157.295 266.936 162.456 266.709 167.615C266.608 169.908 270.393 169.899 270.493 167.615C270.671 163.571 270.716 159.526 270.726 155.48C270.905 155.491 271.085 155.491 271.264 155.481C271.275 159.527 271.318 163.573 271.495 167.615C271.595 169.899 275.381 169.908 275.279 167.615C275.052 162.456 275.044 157.295 275.044 152.131C275.044 151.971 275.021 151.825 274.987 151.685C274.982 149.444 274.891 147.2 274.918 144.96C276.046 146.753 276.149 149.487 275.953 151.259C275.731 153.252 279.044 153.232 279.263 151.259C279.779 146.599 277.906 140.457 272.121 140.073Z" fill="#7F7F7F"/>
<path d="M308.498 138.59C310.327 138.59 311.81 137.197 311.81 135.478C311.81 133.76 310.327 132.367 308.498 132.367C306.669 132.367 305.186 133.76 305.186 135.478C305.186 137.197 306.669 138.59 308.498 138.59Z" fill="#7F7F7F"/>
<path d="M309.652 140.073C308.827 139.915 307.93 139.922 307.119 140.102C301.613 140.708 299.825 146.695 300.33 151.261C300.549 153.235 303.861 153.255 303.639 151.261C303.456 149.597 303.534 147.086 304.476 145.302C304.476 147.471 304.476 149.64 304.476 151.808C304.476 151.885 304.484 151.957 304.487 152.031C304.485 152.066 304.476 152.095 304.476 152.131C304.476 157.295 304.467 162.456 304.24 167.615C304.139 169.908 307.924 169.899 308.024 167.615C308.202 163.571 308.247 159.526 308.257 155.48C308.437 155.491 308.616 155.491 308.795 155.481C308.806 159.527 308.85 163.573 309.026 167.615C309.127 169.899 312.912 169.908 312.81 167.615C312.583 162.456 312.575 157.295 312.575 152.131C312.575 151.971 312.552 151.825 312.518 151.685C312.513 149.444 312.422 147.2 312.45 144.96C313.577 146.753 313.68 149.487 313.484 151.259C313.262 153.252 316.575 153.232 316.794 151.259C317.311 146.599 315.437 140.457 309.652 140.073Z" fill="#7F7F7F"/>
<path d="M346.029 138.59C347.859 138.59 349.341 137.197 349.341 135.478C349.341 133.76 347.859 132.367 346.029 132.367C344.2 132.367 342.717 133.76 342.717 135.478C342.717 137.197 344.2 138.59 346.029 138.59Z" fill="#7F7F7F"/>
<path d="M347.183 140.073C346.358 139.915 345.461 139.922 344.65 140.102C339.144 140.708 337.356 146.695 337.861 151.261C338.08 153.235 341.392 153.255 341.17 151.261C340.987 149.597 341.065 147.086 342.007 145.302C342.007 147.471 342.007 149.64 342.007 151.808C342.007 151.885 342.015 151.957 342.018 152.031C342.016 152.066 342.007 152.095 342.007 152.131C342.007 157.295 341.998 162.456 341.771 167.615C341.67 169.908 345.455 169.899 345.555 167.615C345.733 163.571 345.778 159.526 345.788 155.48C345.968 155.491 346.147 155.491 346.326 155.481C346.337 159.527 346.381 163.573 346.557 167.615C346.658 169.899 350.443 169.908 350.341 167.615C350.114 162.456 350.106 157.295 350.106 152.131C350.106 151.971 350.083 151.825 350.049 151.685C350.044 149.444 349.953 147.2 349.981 144.96C351.108 146.753 351.211 149.487 351.015 151.259C350.793 153.252 354.106 153.232 354.325 151.259C354.842 146.599 352.968 140.457 347.183 140.073Z" fill="#7F7F7F"/>
<path d="M383.56 138.59C385.39 138.59 386.872 137.197 386.872 135.478C386.872 133.76 385.39 132.367 383.56 132.367C381.731 132.367 380.248 133.76 380.248 135.478C380.248 137.197 381.731 138.59 383.56 138.59Z" fill="#7F7F7F"/>
<path d="M384.714 140.073C383.889 139.915 382.992 139.922 382.181 140.102C376.675 140.708 374.887 146.695 375.392 151.261C375.611 153.235 378.923 153.255 378.701 151.261C378.518 149.597 378.596 147.086 379.538 145.302C379.538 147.471 379.538 149.64 379.538 151.808C379.538 151.885 379.546 151.957 379.55 152.031C379.547 152.066 379.538 152.095 379.538 152.131C379.538 157.295 379.529 162.456 379.302 167.615C379.201 169.908 382.986 169.899 383.086 167.615C383.264 163.571 383.309 159.526 383.319 155.48C383.499 155.491 383.678 155.491 383.857 155.481C383.868 159.527 383.912 163.573 384.088 167.615C384.189 169.899 387.974 169.908 387.872 167.615C387.645 162.456 387.637 157.295 387.637 152.131C387.637 151.971 387.614 151.825 387.58 151.685C387.575 149.444 387.484 147.2 387.512 144.96C388.639 146.753 388.742 149.487 388.546 151.259C388.324 153.252 391.637 153.232 391.856 151.259C392.373 146.599 390.499 140.457 384.714 140.073Z" fill="#7F7F7F"/>
<path d="M421.091 138.59C422.92 138.59 424.403 137.197 424.403 135.478C424.403 133.76 422.92 132.367 421.091 132.367C419.262 132.367 417.779 133.76 417.779 135.478C417.779 137.197 419.262 138.59 421.091 138.59Z" fill="#7F7F7F"/>
<path d="M422.245 140.073C421.42 139.915 420.523 139.922 419.712 140.102C414.206 140.708 412.418 146.695 412.923 151.261C413.142 153.235 416.454 153.255 416.233 151.261C416.049 149.597 416.128 147.086 417.069 145.302C417.069 147.471 417.069 149.64 417.069 151.808C417.069 151.885 417.077 151.957 417.081 152.031C417.078 152.066 417.07 152.095 417.07 152.131C417.07 157.295 417.06 162.456 416.833 167.615C416.732 169.908 420.518 169.899 420.617 167.615C420.795 163.571 420.84 159.526 420.85 155.48C421.03 155.491 421.209 155.491 421.388 155.481C421.399 159.527 421.443 163.573 421.619 167.615C421.72 169.899 425.505 169.908 425.404 167.615C425.176 162.456 425.168 157.295 425.168 152.131C425.168 151.971 425.146 151.825 425.111 151.685C425.106 149.444 425.015 147.2 425.043 144.96C426.17 146.753 426.273 149.487 426.077 151.259C425.855 153.252 429.168 153.232 429.387 151.259C429.904 146.599 428.03 140.457 422.245 140.073Z" fill="#7F7F7F"/>
<path d="M458.622 138.59C460.452 138.59 461.934 137.197 461.934 135.478C461.934 133.76 460.452 132.367 458.622 132.367C456.793 132.367 455.31 133.76 455.31 135.478C455.31 137.197 456.793 138.59 458.622 138.59Z" fill="#7F7F7F"/>
<path d="M459.776 140.073C458.951 139.915 458.054 139.922 457.243 140.102C451.737 140.708 449.949 146.695 450.454 151.261C450.673 153.235 453.985 153.255 453.764 151.261C453.58 149.597 453.659 147.086 454.6 145.302C454.6 147.471 454.6 149.64 454.6 151.808C454.6 151.885 454.608 151.957 454.612 152.031C454.609 152.066 454.601 152.095 454.601 152.131C454.601 157.295 454.591 162.456 454.364 167.615C454.263 169.908 458.049 169.899 458.148 167.615C458.326 163.571 458.371 159.526 458.381 155.48C458.561 155.491 458.74 155.491 458.919 155.481C458.93 159.527 458.974 163.573 459.15 167.615C459.251 169.899 463.036 169.908 462.935 167.615C462.707 162.456 462.699 157.295 462.699 152.131C462.699 151.971 462.677 151.825 462.642 151.685C462.637 149.444 462.546 147.2 462.574 144.96C463.701 146.753 463.804 149.487 463.608 151.259C463.386 153.252 466.699 153.232 466.918 151.259C467.435 146.599 465.561 140.457 459.776 140.073Z" fill="#7F7F7F"/>
<path d="M8.25006 204.592C10.0792 204.592 11.562 203.199 11.562 201.481C11.562 199.762 10.0792 198.369 8.25006 198.369C6.42092 198.369 4.93811 199.762 4.93811 201.481C4.93811 203.199 6.42092 204.592 8.25006 204.592Z" fill="white"/>
<path d="M9.40383 206.075C8.57859 205.918 7.68135 205.925 6.87081 206.104C1.3646 206.71 -0.423279 212.698 0.0815604 217.263C0.300545 219.237 3.6125 219.258 3.39131 217.263C3.2076 215.599 3.28623 213.088 4.22757 211.304C4.22757 213.473 4.22757 215.642 4.22757 217.811C4.22757 217.887 4.23565 217.959 4.23932 218.033C4.23712 218.068 4.2283 218.098 4.2283 218.134C4.2283 223.297 4.21875 228.458 3.99168 233.617C3.89101 235.911 7.6762 235.902 7.77614 233.617C7.95397 229.574 7.9988 225.528 8.00909 221.482C8.18839 221.493 8.36769 221.493 8.547 221.483C8.55802 225.53 8.60137 229.575 8.77774 233.617C8.87841 235.902 12.6636 235.911 12.5622 233.617C12.3351 228.458 12.327 223.297 12.327 218.134C12.327 217.973 12.3043 217.828 12.2697 217.688C12.2646 215.446 12.1735 213.202 12.2014 210.962C13.3286 212.755 13.4315 215.49 13.2361 217.262C13.0141 219.255 16.3268 219.235 16.5458 217.262C17.0624 212.602 15.1885 206.459 9.40383 206.075Z" fill="white"/>
<path d="M83.3122 204.592C85.1413 204.592 86.6242 203.199 86.6242 201.481C86.6242 199.762 85.1413 198.369 83.3122 198.369C81.4831 198.369 80.0002 199.762 80.0002 201.481C80.0002 203.199 81.4831 204.592 83.3122 204.592Z" fill="#7F7F7F"/>
<path d="M84.466 206.075C83.6407 205.918 82.7435 205.925 81.9329 206.104C76.4267 206.71 74.6389 212.698 75.1437 217.263C75.3627 219.237 78.6746 219.258 78.4534 217.263C78.2697 215.599 78.3484 213.088 79.2897 211.304C79.2897 213.473 79.2897 215.642 79.2897 217.811C79.2897 217.887 79.2978 217.959 79.3015 218.033C79.2993 218.068 79.2904 218.098 79.2904 218.134C79.2904 223.297 79.2809 228.458 79.0538 233.617C78.9531 235.911 82.7383 235.902 82.8383 233.617C83.0161 229.574 83.0609 225.528 83.0712 221.482C83.2505 221.493 83.4298 221.493 83.6091 221.483C83.6202 225.53 83.6635 229.575 83.8399 233.617C83.9405 235.902 87.7257 235.911 87.6243 233.617C87.3973 228.458 87.3892 223.297 87.3892 218.134C87.3892 217.973 87.3664 217.828 87.3319 217.688C87.3267 215.446 87.2356 213.202 87.2635 210.962C88.3908 212.755 88.4937 215.49 88.2982 217.262C88.0763 219.255 91.389 219.235 91.6079 217.262C92.1245 212.602 90.2507 206.459 84.466 206.075Z" fill="#7F7F7F"/>
<path d="M45.7812 204.592C47.6103 204.592 49.0931 203.199 49.0931 201.481C49.0931 199.762 47.6103 198.369 45.7812 198.369C43.9521 198.369 42.4692 199.762 42.4692 201.481C42.4692 203.199 43.9521 204.592 45.7812 204.592Z" fill="#7F7F7F"/>
<path d="M46.9348 206.075C46.1096 205.918 45.2124 205.925 44.4018 206.104C38.8956 206.71 37.1077 212.698 37.6126 217.263C37.8316 219.237 41.1435 219.258 40.9223 217.263C40.7386 215.599 40.8172 213.088 41.7586 211.304C41.7586 213.473 41.7586 215.642 41.7586 217.811C41.7586 217.887 41.7667 217.959 41.7703 218.033C41.7681 218.068 41.7593 218.098 41.7593 218.134C41.7593 223.297 41.7498 228.458 41.5227 233.617C41.422 235.911 45.2072 235.902 45.3071 233.617C45.485 229.574 45.5298 225.528 45.5401 221.482C45.7194 221.493 45.8987 221.493 46.078 221.483C46.089 225.53 46.1324 229.575 46.3087 233.617C46.4094 235.902 50.1946 235.911 50.0932 233.617C49.8661 228.458 49.8581 223.297 49.8581 218.134C49.8581 217.973 49.8353 217.828 49.8007 217.688C49.7956 215.446 49.7045 213.202 49.7324 210.962C50.8596 212.755 50.9625 215.49 50.7671 217.262C50.5451 219.255 53.8578 219.235 54.0768 217.262C54.5934 212.602 52.7195 206.459 46.9348 206.075Z" fill="#7F7F7F"/>
<path d="M83.3122 138.623C85.1413 138.623 86.6242 137.23 86.6242 135.512C86.6242 133.793 85.1413 132.4 83.3122 132.4C81.4831 132.4 80.0002 133.793 80.0002 135.512C80.0002 137.23 81.4831 138.623 83.3122 138.623Z" fill="#7F7F7F"/>
<path d="M84.466 140.106C83.6407 139.949 82.7435 139.956 81.9329 140.135C76.4267 140.741 74.6389 146.729 75.1437 151.294C75.3627 153.268 78.6746 153.289 78.4534 151.294C78.2697 149.63 78.3484 147.119 79.2897 145.335C79.2897 147.504 79.2897 149.673 79.2897 151.842C79.2897 151.918 79.2978 151.99 79.3015 152.064C79.2993 152.099 79.2904 152.129 79.2904 152.165C79.2904 157.328 79.2809 162.489 79.0538 167.648C78.9531 169.942 82.7383 169.933 82.8383 167.648C83.0161 163.605 83.0609 159.559 83.0712 155.513C83.2505 155.524 83.4298 155.524 83.6091 155.514C83.6202 159.561 83.6635 163.606 83.8399 167.648C83.9405 169.933 87.7257 169.942 87.6243 167.648C87.3973 162.489 87.3892 157.328 87.3892 152.165C87.3892 152.004 87.3664 151.859 87.3319 151.719C87.3267 149.477 87.2356 147.233 87.2635 144.993C88.3908 146.786 88.4937 149.521 88.2982 151.293C88.0763 153.286 91.389 153.266 91.6079 151.293C92.1245 146.633 90.2507 140.49 84.466 140.106Z" fill="#7F7F7F"/>
<path d="M45.7812 270.561C47.6103 270.561 49.0931 269.168 49.0931 267.45C49.0931 265.731 47.6103 264.338 45.7812 264.338C43.9521 264.338 42.4692 265.731 42.4692 267.45C42.4692 269.168 43.9521 270.561 45.7812 270.561Z" fill="#7F7F7F"/>
<path d="M46.9348 272.044C46.1096 271.887 45.2124 271.894 44.4018 272.073C38.8956 272.679 37.1077 278.667 37.6126 283.232C37.8316 285.206 41.1435 285.227 40.9223 283.232C40.7386 281.568 40.8172 279.057 41.7586 277.273C41.7586 279.442 41.7586 281.611 41.7586 283.78C41.7586 283.856 41.7667 283.928 41.7703 284.002C41.7681 284.037 41.7593 284.067 41.7593 284.103C41.7593 289.266 41.7498 294.427 41.5227 299.586C41.422 301.88 45.2072 301.871 45.3071 299.586C45.485 295.543 45.5298 291.497 45.5401 287.451C45.7194 287.462 45.8987 287.462 46.078 287.452C46.089 291.499 46.1324 295.544 46.3087 299.586C46.4094 301.871 50.1946 301.88 50.0932 299.586C49.8661 294.427 49.8581 289.266 49.8581 284.103C49.8581 283.942 49.8353 283.797 49.8007 283.657C49.7956 281.415 49.7045 279.171 49.7324 276.931C50.8596 278.724 50.9625 281.459 50.7671 283.231C50.5451 285.224 53.8578 285.204 54.0768 283.231C54.5934 278.571 52.7195 272.428 46.9348 272.044Z" fill="#7F7F7F"/>
<path d="M120.843 204.592C122.672 204.592 124.155 203.199 124.155 201.481C124.155 199.762 122.672 198.369 120.843 198.369C119.014 198.369 117.531 199.762 117.531 201.481C117.531 203.199 119.014 204.592 120.843 204.592Z" fill="#7F7F7F"/>
<path d="M121.997 206.075C121.172 205.918 120.274 205.925 119.464 206.104C113.958 206.71 112.17 212.698 112.675 217.263C112.894 219.237 116.206 219.258 115.984 217.263C115.801 215.599 115.879 213.088 116.821 211.304C116.821 213.473 116.821 215.642 116.821 217.811C116.821 217.887 116.829 217.959 116.832 218.033C116.83 218.068 116.821 218.098 116.821 218.134C116.821 223.297 116.812 228.458 116.585 233.617C116.484 235.911 120.269 235.902 120.369 233.617C120.547 229.574 120.592 225.528 120.602 221.482C120.781 221.493 120.961 221.493 121.14 221.483C121.151 225.53 121.194 229.575 121.371 233.617C121.471 235.902 125.257 235.911 125.155 233.617C124.928 228.458 124.92 223.297 124.92 218.134C124.92 217.973 124.897 217.828 124.863 217.688C124.858 215.446 124.766 213.202 124.794 210.962C125.922 212.755 126.025 215.49 125.829 217.262C125.607 219.255 128.92 219.235 129.139 217.262C129.655 212.602 127.782 206.459 121.997 206.075Z" fill="#7F7F7F"/>
<path d="M158.374 204.592C160.203 204.592 161.686 203.199 161.686 201.481C161.686 199.762 160.203 198.369 158.374 198.369C156.545 198.369 155.062 199.762 155.062 201.481C155.062 203.199 156.545 204.592 158.374 204.592Z" fill="#7F7F7F"/>
<path d="M159.528 206.075C158.703 205.918 157.805 205.925 156.995 206.104C151.489 206.71 149.701 212.698 150.206 217.263C150.425 219.237 153.737 219.258 153.515 217.263C153.332 215.599 153.41 213.088 154.352 211.304C154.352 213.473 154.352 215.642 154.352 217.811C154.352 217.887 154.36 217.959 154.363 218.033C154.361 218.068 154.352 218.098 154.352 218.134C154.352 223.297 154.343 228.458 154.116 233.617C154.015 235.911 157.8 235.902 157.9 233.617C158.078 229.574 158.123 225.528 158.133 221.482C158.313 221.493 158.492 221.493 158.671 221.483C158.682 225.53 158.726 229.575 158.902 233.617C159.003 235.902 162.788 235.911 162.686 233.617C162.459 228.458 162.451 223.297 162.451 218.134C162.451 217.973 162.428 217.828 162.394 217.688C162.389 215.446 162.298 213.202 162.326 210.962C163.453 212.755 163.556 215.49 163.36 217.262C163.138 219.255 166.451 219.235 166.67 217.262C167.187 212.602 165.313 206.459 159.528 206.075Z" fill="#7F7F7F"/>
<path d="M195.905 204.592C197.734 204.592 199.217 203.199 199.217 201.481C199.217 199.762 197.734 198.369 195.905 198.369C194.076 198.369 192.593 199.762 192.593 201.481C192.593 203.199 194.076 204.592 195.905 204.592Z" fill="#7F7F7F"/>
<path d="M197.059 206.075C196.234 205.918 195.336 205.925 194.526 206.104C189.02 206.71 187.232 212.698 187.737 217.263C187.956 219.237 191.268 219.258 191.046 217.263C190.863 215.599 190.941 213.088 191.883 211.304C191.883 213.473 191.883 215.642 191.883 217.811C191.883 217.887 191.891 217.959 191.894 218.033C191.892 218.068 191.883 218.098 191.883 218.134C191.883 223.297 191.874 228.458 191.647 233.617C191.546 235.911 195.331 235.902 195.431 233.617C195.609 229.574 195.654 225.528 195.664 221.482C195.844 221.493 196.023 221.493 196.202 221.483C196.213 225.53 196.257 229.575 196.433 233.617C196.534 235.902 200.319 235.911 200.217 233.617C199.99 228.458 199.982 223.297 199.982 218.134C199.982 217.973 199.959 217.828 199.925 217.688C199.92 215.446 199.829 213.202 199.857 210.962C200.984 212.755 201.087 215.49 200.891 217.262C200.669 219.255 203.982 219.235 204.201 217.262C204.718 212.602 202.844 206.459 197.059 206.075Z" fill="#7F7F7F"/>
<path d="M233.436 204.592C235.265 204.592 236.748 203.199 236.748 201.481C236.748 199.762 235.265 198.369 233.436 198.369C231.607 198.369 230.124 199.762 230.124 201.481C230.124 203.199 231.607 204.592 233.436 204.592Z" fill="#7F7F7F"/>
<path d="M234.59 206.075C233.765 205.918 232.867 205.925 232.057 206.104C226.551 206.71 224.763 212.698 225.268 217.263C225.487 219.237 228.799 219.258 228.577 217.263C228.394 215.599 228.472 213.088 229.414 211.304C229.414 213.473 229.414 215.642 229.414 217.811C229.414 217.887 229.422 217.959 229.425 218.033C229.423 218.068 229.414 218.098 229.414 218.134C229.414 223.297 229.405 228.458 229.178 233.617C229.077 235.911 232.862 235.902 232.962 233.617C233.14 229.574 233.185 225.528 233.195 221.482C233.374 221.493 233.554 221.493 233.733 221.483C233.744 225.53 233.787 229.575 233.964 233.617C234.064 235.902 237.85 235.911 237.748 233.617C237.521 228.458 237.513 223.297 237.513 218.134C237.513 217.973 237.49 217.828 237.456 217.688C237.451 215.446 237.359 213.202 237.387 210.962C238.515 212.755 238.618 215.49 238.422 217.262C238.2 219.255 241.513 219.235 241.732 217.262C242.248 212.602 240.375 206.459 234.59 206.075Z" fill="#7F7F7F"/>
<path d="M270.967 204.592C272.796 204.592 274.279 203.199 274.279 201.481C274.279 199.762 272.796 198.369 270.967 198.369C269.138 198.369 267.655 199.762 267.655 201.481C267.655 203.199 269.138 204.592 270.967 204.592Z" fill="#7F7F7F"/>
<path d="M272.121 206.075C271.296 205.918 270.398 205.925 269.588 206.104C264.082 206.71 262.294 212.698 262.799 217.263C263.018 219.237 266.33 219.258 266.108 217.263C265.925 215.599 266.003 213.088 266.945 211.304C266.945 213.473 266.945 215.642 266.945 217.811C266.945 217.887 266.953 217.959 266.956 218.033C266.954 218.068 266.945 218.098 266.945 218.134C266.945 223.297 266.936 228.458 266.709 233.617C266.608 235.911 270.393 235.902 270.493 233.617C270.671 229.574 270.716 225.528 270.726 221.482C270.905 221.493 271.085 221.493 271.264 221.483C271.275 225.53 271.318 229.575 271.495 233.617C271.595 235.902 275.381 235.911 275.279 233.617C275.052 228.458 275.044 223.297 275.044 218.134C275.044 217.973 275.021 217.828 274.987 217.688C274.982 215.446 274.891 213.202 274.918 210.962C276.046 212.755 276.149 215.49 275.953 217.262C275.731 219.255 279.044 219.235 279.263 217.262C279.779 212.602 277.906 206.459 272.121 206.075Z" fill="#7F7F7F"/>
<path d="M308.498 204.592C310.327 204.592 311.81 203.199 311.81 201.481C311.81 199.762 310.327 198.369 308.498 198.369C306.669 198.369 305.186 199.762 305.186 201.481C305.186 203.199 306.669 204.592 308.498 204.592Z" fill="#7F7F7F"/>
<path d="M309.652 206.075C308.827 205.918 307.93 205.925 307.119 206.104C301.613 206.71 299.825 212.698 300.33 217.263C300.549 219.237 303.861 219.258 303.639 217.263C303.456 215.599 303.534 213.088 304.476 211.304C304.476 213.473 304.476 215.642 304.476 217.811C304.476 217.887 304.484 217.959 304.487 218.033C304.485 218.068 304.476 218.098 304.476 218.134C304.476 223.297 304.467 228.458 304.24 233.617C304.139 235.911 307.924 235.902 308.024 233.617C308.202 229.574 308.247 225.528 308.257 221.482C308.437 221.493 308.616 221.493 308.795 221.483C308.806 225.53 308.85 229.575 309.026 233.617C309.127 235.902 312.912 235.911 312.81 233.617C312.583 228.458 312.575 223.297 312.575 218.134C312.575 217.973 312.552 217.828 312.518 217.688C312.513 215.446 312.422 213.202 312.45 210.962C313.577 212.755 313.68 215.49 313.484 217.262C313.262 219.255 316.575 219.235 316.794 217.262C317.311 212.602 315.437 206.459 309.652 206.075Z" fill="#7F7F7F"/>
<path d="M346.029 204.592C347.859 204.592 349.341 203.199 349.341 201.481C349.341 199.762 347.859 198.369 346.029 198.369C344.2 198.369 342.717 199.762 342.717 201.481C342.717 203.199 344.2 204.592 346.029 204.592Z" fill="#7F7F7F"/>
<path d="M347.183 206.075C346.358 205.918 345.461 205.925 344.65 206.104C339.144 206.71 337.356 212.698 337.861 217.263C338.08 219.237 341.392 219.258 341.17 217.263C340.987 215.599 341.065 213.088 342.007 211.304C342.007 213.473 342.007 215.642 342.007 217.811C342.007 217.887 342.015 217.959 342.018 218.033C342.016 218.068 342.007 218.098 342.007 218.134C342.007 223.297 341.998 228.458 341.771 233.617C341.67 235.911 345.455 235.902 345.555 233.617C345.733 229.574 345.778 225.528 345.788 221.482C345.968 221.493 346.147 221.493 346.326 221.483C346.337 225.53 346.381 229.575 346.557 233.617C346.658 235.902 350.443 235.911 350.341 233.617C350.114 228.458 350.106 223.297 350.106 218.134C350.106 217.973 350.083 217.828 350.049 217.688C350.044 215.446 349.953 213.202 349.981 210.962C351.108 212.755 351.211 215.49 351.015 217.262C350.793 219.255 354.106 219.235 354.325 217.262C354.842 212.602 352.968 206.459 347.183 206.075Z" fill="#7F7F7F"/>
<path d="M383.56 204.592C385.39 204.592 386.872 203.199 386.872 201.481C386.872 199.762 385.39 198.369 383.56 198.369C381.731 198.369 380.248 199.762 380.248 201.481C380.248 203.199 381.731 204.592 383.56 204.592Z" fill="#7F7F7F"/>
<path d="M384.714 206.075C383.889 205.918 382.992 205.925 382.181 206.104C376.675 206.71 374.887 212.698 375.392 217.263C375.611 219.237 378.923 219.258 378.701 217.263C378.518 215.599 378.596 213.088 379.538 211.304C379.538 213.473 379.538 215.642 379.538 217.811C379.538 217.887 379.546 217.959 379.55 218.033C379.547 218.068 379.538 218.098 379.538 218.134C379.538 223.297 379.529 228.458 379.302 233.617C379.201 235.911 382.986 235.902 383.086 233.617C383.264 229.574 383.309 225.528 383.319 221.482C383.499 221.493 383.678 221.493 383.857 221.483C383.868 225.53 383.912 229.575 384.088 233.617C384.189 235.902 387.974 235.911 387.872 233.617C387.645 228.458 387.637 223.297 387.637 218.134C387.637 217.973 387.614 217.828 387.58 217.688C387.575 215.446 387.484 213.202 387.512 210.962C388.639 212.755 388.742 215.49 388.546 217.262C388.324 219.255 391.637 219.235 391.856 217.262C392.373 212.602 390.499 206.459 384.714 206.075Z" fill="#7F7F7F"/>
<path d="M421.091 204.592C422.92 204.592 424.403 203.199 424.403 201.481C424.403 199.762 422.92 198.369 421.091 198.369C419.262 198.369 417.779 199.762 417.779 201.481C417.779 203.199 419.262 204.592 421.091 204.592Z" fill="#7F7F7F"/>
<path d="M422.245 206.075C421.42 205.918 420.523 205.925 419.712 206.104C414.206 206.71 412.418 212.698 412.923 217.263C413.142 219.237 416.454 219.258 416.233 217.263C416.049 215.599 416.128 213.088 417.069 211.304C417.069 213.473 417.069 215.642 417.069 217.811C417.069 217.887 417.077 217.959 417.081 218.033C417.078 218.068 417.07 218.098 417.07 218.134C417.07 223.297 417.06 228.458 416.833 233.617C416.732 235.911 420.518 235.902 420.617 233.617C420.795 229.574 420.84 225.528 420.85 221.482C421.03 221.493 421.209 221.493 421.388 221.483C421.399 225.53 421.443 229.575 421.619 233.617C421.72 235.902 425.505 235.911 425.404 233.617C425.176 228.458 425.168 223.297 425.168 218.134C425.168 217.973 425.146 217.828 425.111 217.688C425.106 215.446 425.015 213.202 425.043 210.962C426.17 212.755 426.273 215.49 426.077 217.262C425.855 219.255 429.168 219.235 429.387 217.262C429.904 212.602 428.03 206.459 422.245 206.075Z" fill="#7F7F7F"/>
<path d="M458.622 204.592C460.452 204.592 461.934 203.199 461.934 201.481C461.934 199.762 460.452 198.369 458.622 198.369C456.793 198.369 455.31 199.762 455.31 201.481C455.31 203.199 456.793 204.592 458.622 204.592Z" fill="#7F7F7F"/>
<path d="M459.776 206.075C458.951 205.918 458.054 205.925 457.243 206.104C451.737 206.71 449.949 212.698 450.454 217.263C450.673 219.237 453.985 219.258 453.764 217.263C453.58 215.599 453.659 213.088 454.6 211.304C454.6 213.473 454.6 215.642 454.6 217.811C454.6 217.887 454.608 217.959 454.612 218.033C454.609 218.068 454.601 218.098 454.601 218.134C454.601 223.297 454.591 228.458 454.364 233.617C454.263 235.911 458.049 235.902 458.148 233.617C458.326 229.574 458.371 225.528 458.381 221.482C458.561 221.493 458.74 221.493 458.919 221.483C458.93 225.53 458.974 229.575 459.15 233.617C459.251 235.902 463.036 235.911 462.935 233.617C462.707 228.458 462.699 223.297 462.699 218.134C462.699 217.973 462.677 217.828 462.642 217.688C462.637 215.446 462.546 213.202 462.574 210.962C463.701 212.755 463.804 215.49 463.608 217.262C463.386 219.255 466.699 219.235 466.918 217.262C467.435 212.602 465.561 206.459 459.776 206.075Z" fill="#7F7F7F"/>
<path d="M8.25006 270.594C10.0792 270.594 11.562 269.201 11.562 267.483C11.562 265.764 10.0792 264.371 8.25006 264.371C6.42092 264.371 4.93811 265.764 4.93811 267.483C4.93811 269.201 6.42092 270.594 8.25006 270.594Z" fill="#E94E38"/>
<path d="M9.40383 272.077C8.57859 271.92 7.68135 271.927 6.87081 272.106C1.3646 272.712 -0.423279 278.7 0.0815604 283.265C0.300545 285.239 3.6125 285.26 3.39131 283.265C3.2076 281.602 3.28623 279.091 4.22757 277.306C4.22757 279.475 4.22757 281.644 4.22757 283.813C4.22757 283.89 4.23565 283.961 4.23932 284.035C4.23712 284.07 4.2283 284.1 4.2283 284.136C4.2283 289.299 4.21875 294.46 3.99168 299.62C3.89101 301.913 7.6762 301.904 7.77614 299.62C7.95397 295.576 7.9988 291.53 8.00909 287.484C8.18839 287.495 8.36769 287.495 8.547 287.486C8.55802 291.532 8.60137 295.577 8.77774 299.62C8.87841 301.904 12.6636 301.913 12.5622 299.62C12.3351 294.46 12.327 289.299 12.327 284.136C12.327 283.976 12.3043 283.83 12.2697 283.69C12.2646 281.448 12.1735 279.205 12.2014 276.964C13.3286 278.757 13.4315 281.492 13.2361 283.264C13.0141 285.257 16.3268 285.237 16.5458 283.264C17.0624 278.604 15.1885 272.461 9.40383 272.077Z" fill="#E94E38"/>
<g clip-path="url(#clip0_3_704)">
<path d="M45.7811 204.492C47.6102 204.492 49.093 203.099 49.093 201.381C49.093 199.662 47.6102 198.269 45.7811 198.269C43.9519 198.269 42.4691 199.662 42.4691 201.381C42.4691 203.099 43.9519 204.492 45.7811 204.492Z" fill="white"/>
<path d="M46.9348 205.975C46.1096 205.818 45.2124 205.825 44.4018 206.004C38.8956 206.61 37.1077 212.598 37.6126 217.163C37.8316 219.137 41.1435 219.158 40.9223 217.163C40.7386 215.499 40.8172 212.988 41.7586 211.204C41.7586 213.373 41.7586 215.542 41.7586 217.711C41.7586 217.787 41.7667 217.859 41.7703 217.933C41.7681 217.968 41.7593 217.998 41.7593 218.034C41.7593 223.197 41.7498 228.358 41.5227 233.517C41.422 235.811 45.2072 235.802 45.3071 233.517C45.485 229.474 45.5298 225.428 45.5401 221.382C45.7194 221.393 45.8987 221.393 46.078 221.383C46.089 225.43 46.1324 229.475 46.3087 233.517C46.4094 235.802 50.1946 235.811 50.0932 233.517C49.8661 228.358 49.8581 223.197 49.8581 218.034C49.8581 217.874 49.8353 217.728 49.8007 217.588C49.7956 215.346 49.7045 213.102 49.7324 210.862C50.8596 212.655 50.9625 215.39 50.7671 217.162C50.5451 219.155 53.8578 219.135 54.0768 217.162C54.5934 212.502 52.7195 206.359 46.9348 205.975Z" fill="white"/>
</g>
<g clip-path="url(#clip1_3_704)">
<path d="M83.3121 138.523C85.1412 138.523 86.624 137.13 86.624 135.412C86.624 133.693 85.1412 132.3 83.3121 132.3C81.4829 132.3 80.0001 133.693 80.0001 135.412C80.0001 137.13 81.4829 138.523 83.3121 138.523Z" fill="white"/>
<path d="M84.4658 140.006C83.6406 139.849 82.7434 139.856 81.9328 140.035C76.4266 140.641 74.6387 146.629 75.1436 151.194C75.3626 153.168 78.6745 153.189 78.4533 151.194C78.2696 149.53 78.3482 147.019 79.2896 145.235C79.2896 147.404 79.2896 149.573 79.2896 151.742C79.2896 151.818 79.2977 151.89 79.3013 151.964C79.2991 151.999 79.2903 152.029 79.2903 152.065C79.2903 157.228 79.2808 162.389 79.0537 167.548C78.953 169.842 82.7382 169.833 82.8382 167.548C83.016 163.505 83.0608 159.459 83.0711 155.413C83.2504 155.424 83.4297 155.424 83.609 155.414C83.62 159.461 83.6634 163.506 83.8397 167.548C83.9404 169.833 87.7256 169.842 87.6242 167.548C87.3971 162.389 87.3891 157.228 87.3891 152.065C87.3891 151.905 87.3663 151.759 87.3317 151.619C87.3266 149.377 87.2355 147.133 87.2634 144.893C88.3907 146.686 88.4935 149.421 88.2981 151.193C88.0761 153.186 91.3888 153.166 91.6078 151.193C92.1244 146.533 90.2506 140.39 84.4658 140.006Z" fill="white"/>
</g>
<g clip-path="url(#clip2_3_704)">
<path d="M45.7811 270.461C47.6102 270.461 49.093 269.068 49.093 267.35C49.093 265.631 47.6102 264.238 45.7811 264.238C43.9519 264.238 42.4691 265.631 42.4691 267.35C42.4691 269.068 43.9519 270.461 45.7811 270.461Z" fill="#E94E38"/>
<path d="M46.9348 271.944C46.1096 271.787 45.2124 271.794 44.4018 271.973C38.8956 272.579 37.1077 278.567 37.6126 283.132C37.8316 285.106 41.1435 285.127 40.9223 283.132C40.7386 281.468 40.8172 278.957 41.7586 277.173C41.7586 279.342 41.7586 281.511 41.7586 283.68C41.7586 283.756 41.7667 283.828 41.7703 283.902C41.7681 283.937 41.7593 283.967 41.7593 284.003C41.7593 289.166 41.7498 294.327 41.5227 299.486C41.422 301.78 45.2072 301.771 45.3071 299.486C45.485 295.443 45.5298 291.397 45.5401 287.351C45.7194 287.362 45.8987 287.362 46.078 287.352C46.089 291.399 46.1324 295.444 46.3087 299.486C46.4094 301.771 50.1946 301.78 50.0932 299.486C49.8661 294.327 49.8581 289.166 49.8581 284.003C49.8581 283.842 49.8353 283.697 49.8007 283.557C49.7956 281.315 49.7045 279.071 49.7324 276.831C50.8596 278.624 50.9625 281.359 50.7671 283.131C50.5451 285.124 53.8578 285.104 54.0768 283.131C54.5934 278.471 52.7195 272.328 46.9348 271.944Z" fill="#E94E38"/>
</g>
<path d="M83.3122 270.594C85.1413 270.594 86.6242 269.201 86.6242 267.483C86.6242 265.764 85.1413 264.371 83.3122 264.371C81.4831 264.371 80.0002 265.764 80.0002 267.483C80.0002 269.201 81.4831 270.594 83.3122 270.594Z" fill="#7F7F7F"/>
<path d="M84.466 272.077C83.6407 271.92 82.7435 271.927 81.9329 272.106C76.4267 272.712 74.6389 278.7 75.1437 283.265C75.3627 285.239 78.6746 285.26 78.4534 283.265C78.2697 281.602 78.3484 279.091 79.2897 277.306C79.2897 279.475 79.2897 281.644 79.2897 283.813C79.2897 283.89 79.2978 283.961 79.3015 284.035C79.2993 284.07 79.2904 284.1 79.2904 284.136C79.2904 289.299 79.2809 294.46 79.0538 299.62C78.9531 301.913 82.7383 301.904 82.8383 299.62C83.0161 295.576 83.0609 291.53 83.0712 287.484C83.2505 287.495 83.4298 287.495 83.6091 287.486C83.6202 291.532 83.6635 295.577 83.8399 299.62C83.9405 301.904 87.7257 301.913 87.6243 299.62C87.3973 294.46 87.3892 289.299 87.3892 284.136C87.3892 283.976 87.3664 283.83 87.3319 283.69C87.3267 281.448 87.2356 279.205 87.2635 276.964C88.3908 278.757 88.4937 281.492 88.2982 283.264C88.0763 285.257 91.389 285.237 91.6079 283.264C92.1245 278.604 90.2507 272.461 84.466 272.077Z" fill="#7F7F7F"/>
<path d="M120.843 270.594C122.672 270.594 124.155 269.201 124.155 267.483C124.155 265.764 122.672 264.371 120.843 264.371C119.014 264.371 117.531 265.764 117.531 267.483C117.531 269.201 119.014 270.594 120.843 270.594Z" fill="#7F7F7F"/>
<path d="M121.997 272.077C121.172 271.92 120.274 271.927 119.464 272.106C113.958 272.712 112.17 278.7 112.675 283.265C112.894 285.239 116.206 285.26 115.984 283.265C115.801 281.602 115.879 279.091 116.821 277.306C116.821 279.475 116.821 281.644 116.821 283.813C116.821 283.89 116.829 283.961 116.832 284.035C116.83 284.07 116.821 284.1 116.821 284.136C116.821 289.299 116.812 294.46 116.585 299.62C116.484 301.913 120.269 301.904 120.369 299.62C120.547 295.576 120.592 291.53 120.602 287.484C120.781 287.495 120.961 287.495 121.14 287.486C121.151 291.532 121.194 295.577 121.371 299.62C121.471 301.904 125.257 301.913 125.155 299.62C124.928 294.46 124.92 289.299 124.92 284.136C124.92 283.976 124.897 283.83 124.863 283.69C124.858 281.448 124.766 279.205 124.794 276.964C125.922 278.757 126.025 281.492 125.829 283.264C125.607 285.257 128.92 285.237 129.139 283.264C129.655 278.604 127.782 272.461 121.997 272.077Z" fill="#7F7F7F"/>
<path d="M158.374 270.594C160.203 270.594 161.686 269.201 161.686 267.483C161.686 265.764 160.203 264.371 158.374 264.371C156.545 264.371 155.062 265.764 155.062 267.483C155.062 269.201 156.545 270.594 158.374 270.594Z" fill="#7F7F7F"/>
<path d="M159.528 272.077C158.703 271.92 157.805 271.927 156.995 272.106C151.489 272.712 149.701 278.7 150.206 283.265C150.425 285.239 153.737 285.26 153.515 283.265C153.332 281.602 153.41 279.091 154.352 277.306C154.352 279.475 154.352 281.644 154.352 283.813C154.352 283.89 154.36 283.961 154.363 284.035C154.361 284.07 154.352 284.1 154.352 284.136C154.352 289.299 154.343 294.46 154.116 299.62C154.015 301.913 157.8 301.904 157.9 299.62C158.078 295.576 158.123 291.53 158.133 287.484C158.313 287.495 158.492 287.495 158.671 287.486C158.682 291.532 158.726 295.577 158.902 299.62C159.003 301.904 162.788 301.913 162.686 299.62C162.459 294.46 162.451 289.299 162.451 284.136C162.451 283.976 162.428 283.83 162.394 283.69C162.389 281.448 162.298 279.205 162.326 276.964C163.453 278.757 163.556 281.492 163.36 283.264C163.138 285.257 166.451 285.237 166.67 283.264C167.187 278.604 165.313 272.461 159.528 272.077Z" fill="#7F7F7F"/>
<path d="M195.905 270.594C197.734 270.594 199.217 269.201 199.217 267.483C199.217 265.764 197.734 264.371 195.905 264.371C194.076 264.371 192.593 265.764 192.593 267.483C192.593 269.201 194.076 270.594 195.905 270.594Z" fill="#7F7F7F"/>
<path d="M197.059 272.077C196.234 271.92 195.336 271.927 194.526 272.106C189.02 272.712 187.232 278.7 187.737 283.265C187.956 285.239 191.268 285.26 191.046 283.265C190.863 281.602 190.941 279.091 191.883 277.306C191.883 279.475 191.883 281.644 191.883 283.813C191.883 283.89 191.891 283.961 191.894 284.035C191.892 284.07 191.883 284.1 191.883 284.136C191.883 289.299 191.874 294.46 191.647 299.62C191.546 301.913 195.331 301.904 195.431 299.62C195.609 295.576 195.654 291.53 195.664 287.484C195.844 287.495 196.023 287.495 196.202 287.486C196.213 291.532 196.257 295.577 196.433 299.62C196.534 301.904 200.319 301.913 200.217 299.62C199.99 294.46 199.982 289.299 199.982 284.136C199.982 283.976 199.959 283.83 199.925 283.69C199.92 281.448 199.829 279.205 199.857 276.964C200.984 278.757 201.087 281.492 200.891 283.264C200.669 285.257 203.982 285.237 204.201 283.264C204.718 278.604 202.844 272.461 197.059 272.077Z" fill="#7F7F7F"/>
<path d="M233.436 270.594C235.265 270.594 236.748 269.201 236.748 267.483C236.748 265.764 235.265 264.371 233.436 264.371C231.607 264.371 230.124 265.764 230.124 267.483C230.124 269.201 231.607 270.594 233.436 270.594Z" fill="#7F7F7F"/>
<path d="M234.59 272.077C233.765 271.92 232.867 271.927 232.057 272.106C226.551 272.712 224.763 278.7 225.268 283.265C225.487 285.239 228.799 285.26 228.577 283.265C228.394 281.602 228.472 279.091 229.414 277.306C229.414 279.475 229.414 281.644 229.414 283.813C229.414 283.89 229.422 283.961 229.425 284.035C229.423 284.07 229.414 284.1 229.414 284.136C229.414 289.299 229.405 294.46 229.178 299.62C229.077 301.913 232.862 301.904 232.962 299.62C233.14 295.576 233.185 291.53 233.195 287.484C233.374 287.495 233.554 287.495 233.733 287.486C233.744 291.532 233.787 295.577 233.964 299.62C234.064 301.904 237.85 301.913 237.748 299.62C237.521 294.46 237.513 289.299 237.513 284.136C237.513 283.976 237.49 283.83 237.456 283.69C237.451 281.448 237.359 279.205 237.387 276.964C238.515 278.757 238.618 281.492 238.422 283.264C238.2 285.257 241.513 285.237 241.732 283.264C242.248 278.604 240.375 272.461 234.59 272.077Z" fill="#7F7F7F"/>
<path d="M270.967 270.594C272.796 270.594 274.279 269.201 274.279 267.483C274.279 265.764 272.796 264.371 270.967 264.371C269.138 264.371 267.655 265.764 267.655 267.483C267.655 269.201 269.138 270.594 270.967 270.594Z" fill="#7F7F7F"/>
<path d="M272.121 272.077C271.296 271.92 270.398 271.927 269.588 272.106C264.082 272.712 262.294 278.7 262.799 283.265C263.018 285.239 266.33 285.26 266.108 283.265C265.925 281.602 266.003 279.091 266.945 277.306C266.945 279.475 266.945 281.644 266.945 283.813C266.945 283.89 266.953 283.961 266.956 284.035C266.954 284.07 266.945 284.1 266.945 284.136C266.945 289.299 266.936 294.46 266.709 299.62C266.608 301.913 270.393 301.904 270.493 299.62C270.671 295.576 270.716 291.53 270.726 287.484C270.905 287.495 271.085 287.495 271.264 287.486C271.275 291.532 271.318 295.577 271.495 299.62C271.595 301.904 275.381 301.913 275.279 299.62C275.052 294.46 275.044 289.299 275.044 284.136C275.044 283.976 275.021 283.83 274.987 283.69C274.982 281.448 274.891 279.205 274.918 276.964C276.046 278.757 276.149 281.492 275.953 283.264C275.731 285.257 279.044 285.237 279.263 283.264C279.779 278.604 277.906 272.461 272.121 272.077Z" fill="#7F7F7F"/>
<path d="M308.498 270.594C310.327 270.594 311.81 269.201 311.81 267.483C311.81 265.764 310.327 264.371 308.498 264.371C306.669 264.371 305.186 265.764 305.186 267.483C305.186 269.201 306.669 270.594 308.498 270.594Z" fill="#7F7F7F"/>
<path d="M309.652 272.077C308.827 271.92 307.93 271.927 307.119 272.106C301.613 272.712 299.825 278.7 300.33 283.265C300.549 285.239 303.861 285.26 303.639 283.265C303.456 281.602 303.534 279.091 304.476 277.306C304.476 279.475 304.476 281.644 304.476 283.813C304.476 283.89 304.484 283.961 304.487 284.035C304.485 284.07 304.476 284.1 304.476 284.136C304.476 289.299 304.467 294.46 304.24 299.62C304.139 301.913 307.924 301.904 308.024 299.62C308.202 295.576 308.247 291.53 308.257 287.484C308.437 287.495 308.616 287.495 308.795 287.486C308.806 291.532 308.85 295.577 309.026 299.62C309.127 301.904 312.912 301.913 312.81 299.62C312.583 294.46 312.575 289.299 312.575 284.136C312.575 283.976 312.552 283.83 312.518 283.69C312.513 281.448 312.422 279.205 312.45 276.964C313.577 278.757 313.68 281.492 313.484 283.264C313.262 285.257 316.575 285.237 316.794 283.264C317.311 278.604 315.437 272.461 309.652 272.077Z" fill="#7F7F7F"/>
<path d="M346.029 270.594C347.859 270.594 349.341 269.201 349.341 267.483C349.341 265.764 347.859 264.371 346.029 264.371C344.2 264.371 342.717 265.764 342.717 267.483C342.717 269.201 344.2 270.594 346.029 270.594Z" fill="#7F7F7F"/>
<path d="M347.183 272.077C346.358 271.92 345.461 271.927 344.65 272.106C339.144 272.712 337.356 278.7 337.861 283.265C338.08 285.239 341.392 285.26 341.17 283.265C340.987 281.602 341.065 279.091 342.007 277.306C342.007 279.475 342.007 281.644 342.007 283.813C342.007 283.89 342.015 283.961 342.018 284.035C342.016 284.07 342.007 284.1 342.007 284.136C342.007 289.299 341.998 294.46 341.771 299.62C341.67 301.913 345.455 301.904 345.555 299.62C345.733 295.576 345.778 291.53 345.788 287.484C345.968 287.495 346.147 287.495 346.326 287.486C346.337 291.532 346.381 295.577 346.557 299.62C346.658 301.904 350.443 301.913 350.341 299.62C350.114 294.46 350.106 289.299 350.106 284.136C350.106 283.976 350.083 283.83 350.049 283.69C350.044 281.448 349.953 279.205 349.981 276.964C351.108 278.757 351.211 281.492 351.015 283.264C350.793 285.257 354.106 285.237 354.325 283.264C354.842 278.604 352.968 272.461 347.183 272.077Z" fill="#7F7F7F"/>
<path d="M383.56 270.594C385.39 270.594 386.872 269.201 386.872 267.483C386.872 265.764 385.39 264.371 383.56 264.371C381.731 264.371 380.248 265.764 380.248 267.483C380.248 269.201 381.731 270.594 383.56 270.594Z" fill="#7F7F7F"/>
<path d="M384.714 272.077C383.889 271.92 382.992 271.927 382.181 272.106C376.675 272.712 374.887 278.7 375.392 283.265C375.611 285.239 378.923 285.26 378.701 283.265C378.518 281.602 378.596 279.091 379.538 277.306C379.538 279.475 379.538 281.644 379.538 283.813C379.538 283.89 379.546 283.961 379.55 284.035C379.547 284.07 379.538 284.1 379.538 284.136C379.538 289.299 379.529 294.46 379.302 299.62C379.201 301.913 382.986 301.904 383.086 299.62C383.264 295.576 383.309 291.53 383.319 287.484C383.499 287.495 383.678 287.495 383.857 287.486C383.868 291.532 383.912 295.577 384.088 299.62C384.189 301.904 387.974 301.913 387.872 299.62C387.645 294.46 387.637 289.299 387.637 284.136C387.637 283.976 387.614 283.83 387.58 283.69C387.575 281.448 387.484 279.205 387.512 276.964C388.639 278.757 388.742 281.492 388.546 283.264C388.324 285.257 391.637 285.237 391.856 283.264C392.373 278.604 390.499 272.461 384.714 272.077Z" fill="#7F7F7F"/>
<path d="M421.091 270.594C422.92 270.594 424.403 269.201 424.403 267.483C424.403 265.764 422.92 264.371 421.091 264.371C419.262 264.371 417.779 265.764 417.779 267.483C417.779 269.201 419.262 270.594 421.091 270.594Z" fill="#7F7F7F"/>
<path d="M422.245 272.077C421.42 271.92 420.523 271.927 419.712 272.106C414.206 272.712 412.418 278.7 412.923 283.265C413.142 285.239 416.454 285.26 416.233 283.265C416.049 281.602 416.128 279.091 417.069 277.306C417.069 279.475 417.069 281.644 417.069 283.813C417.069 283.89 417.077 283.961 417.081 284.035C417.078 284.07 417.07 284.1 417.07 284.136C417.07 289.299 417.06 294.46 416.833 299.62C416.732 301.913 420.518 301.904 420.617 299.62C420.795 295.576 420.84 291.53 420.85 287.484C421.03 287.495 421.209 287.495 421.388 287.486C421.399 291.532 421.443 295.577 421.619 299.62C421.72 301.904 425.505 301.913 425.404 299.62C425.176 294.46 425.168 289.299 425.168 284.136C425.168 283.976 425.146 283.83 425.111 283.69C425.106 281.448 425.015 279.205 425.043 276.964C426.17 278.757 426.273 281.492 426.077 283.264C425.855 285.257 429.168 285.237 429.387 283.264C429.904 278.604 428.03 272.461 422.245 272.077Z" fill="#7F7F7F"/>
<path d="M458.622 270.594C460.452 270.594 461.934 269.201 461.934 267.483C461.934 265.764 460.452 264.371 458.622 264.371C456.793 264.371 455.31 265.764 455.31 267.483C455.31 269.201 456.793 270.594 458.622 270.594Z" fill="#7F7F7F"/>
<path d="M459.776 272.077C458.951 271.92 458.054 271.927 457.243 272.106C451.737 272.712 449.949 278.7 450.454 283.265C450.673 285.239 453.985 285.26 453.764 283.265C453.58 281.602 453.659 279.091 454.6 277.306C454.6 279.475 454.6 281.644 454.6 283.813C454.6 283.89 454.608 283.961 454.612 284.035C454.609 284.07 454.601 284.1 454.601 284.136C454.601 289.299 454.591 294.46 454.364 299.62C454.263 301.913 458.049 301.904 458.148 299.62C458.326 295.576 458.371 291.53 458.381 287.484C458.561 287.495 458.74 287.495 458.919 287.486C458.93 291.532 458.974 295.577 459.15 299.62C459.251 301.904 463.036 301.913 462.935 299.62C462.707 294.46 462.699 289.299 462.699 284.136C462.699 283.976 462.677 283.83 462.642 283.69C462.637 281.448 462.546 279.205 462.574 276.964C463.701 278.757 463.804 281.492 463.608 283.264C463.386 285.257 466.699 285.237 466.918 283.264C467.435 278.604 465.561 272.461 459.776 272.077Z" fill="#7F7F7F"/>
<defs>
<clipPath id="clip0_3_704">
<rect width="7.86941" height="36.9654" fill="white" transform="translate(37.531 198.269)"/>
</clipPath>
<clipPath id="clip1_3_704">
<rect width="7.86941" height="36.9654" fill="white" transform="translate(75.062 132.3)"/>
</clipPath>
<clipPath id="clip2_3_704">
<rect width="7.86941" height="36.9654" fill="white" transform="translate(37.531 264.238)"/>
</clipPath>
</defs>
</svg>
